<svg width="324" height="149" xmlns="http://www.w3.org/2000/svg" xmlns:xlink="http://www.w3.org/1999/xlink" xml:space="preserve" overflow="hidden"><defs><clipPath id="clip0"><rect x="937" y="152" width="324" height="149"/></clipPath></defs><g clip-path="url(#clip0)" transform="translate(-937 -152)"><path d="M29.741 68.5554C28.7328 58.2217 27.7246 47.888 26.8425 37.5543 17.895 41.965 8.94749 46.2497 0 50.6604 2.52042 52.1727 4.91482 53.5589 7.43524 54.9452 7.05718 56.7094 6.55309 58.3477 6.17503 60.112 3.65461 71.3279 3.90665 82.4177 7.30922 93.3816 8.94749 98.5484 10.8378 103.715 13.4842 108.504 13.7363 108.882 13.9883 109.386 14.2404 109.89 14.3664 109.638 14.4924 109.386 14.6184 109.26 16.0047 106.74 17.3909 104.345 18.7771 101.825 19.0292 101.447 19.1552 101.321 19.5333 101.321 22.4317 101.321 25.2042 101.195 28.1027 101.195 28.3547 101.195 28.6068 101.195 28.8588 101.195 24.9522 93.5076 21.9277 85.6943 21.6756 76.9988 21.5496 72.9662 21.9277 68.9335 22.8098 64.9008 25.0782 65.909 27.3466 67.2952 29.741 68.5554Z" fill="#2E9A47" transform="matrix(1 0 0 1.0016 937 152.029)"/><path d="M82.2917 122.87C69.4376 125.265 57.2135 124.257 45.7456 117.452 47.762 115.687 49.7783 114.049 51.9207 112.285 41.713 110.016 31.7573 107.622 21.5496 105.354 22.9358 115.309 24.3221 125.139 25.7083 134.968 27.9767 132.952 29.993 131.062 32.2614 129.046 48.7701 140.639 66.9172 143.286 86.5764 139.757 85.3162 138.371 84.056 137.111 82.9218 135.851 81.9137 134.716 80.9055 133.708 79.7713 132.574 79.3932 132.196 79.3932 131.944 79.5192 131.566 80.4014 128.919 81.1575 126.147 82.0397 123.501 82.1657 123.249 82.1657 123.123 82.2917 122.87Z" fill="#1E3667" transform="matrix(1 0 0 1.0016 937 152.029)"/><path d="M113.923 136.481C112.789 133.708 111.655 131.062 110.52 128.415 111.277 127.785 112.159 127.155 112.915 126.525 122.87 118.46 129.676 108.378 133.582 96.2801 135.221 91.3652 136.481 86.3244 137.111 81.1575 137.111 80.9055 137.111 80.6534 137.237 80.2754 137.237 80.2754 137.237 80.1494 137.111 80.0233 136.229 80.4014 135.473 80.9055 134.59 81.2835 132.7 82.1657 130.684 83.0478 128.919 83.93 128.289 84.3081 127.785 84.182 127.281 83.804 125.139 82.2917 122.87 80.6534 120.602 79.1412 120.476 79.0152 120.224 78.8891 119.972 78.7631 118.208 91.7433 113.545 103.085 103.337 111.907 102.329 109.512 101.447 107.118 100.439 104.597 95.1459 113.545 89.979 122.366 84.6861 131.314 94.3897 132.952 104.093 134.716 113.923 136.481Z" fill="#F99D29" transform="matrix(1 0 0 1.0016 937 152.029)"/><path d="M89.853 29.3629C101.447 35.1599 111.151 42.8471 116.191 55.3232 114.805 55.4492 113.545 55.7013 112.285 55.7013 111.025 55.8273 109.638 55.8273 108.252 55.8273 115.057 63.6406 121.862 71.4539 128.793 79.2672 133.456 70.4457 138.119 61.7503 142.782 52.9288 141.396 53.0548 140.135 53.1809 138.749 53.3069 137.489 53.4329 136.103 53.5589 134.842 53.6849 134.212 53.811 134.086 53.5589 133.834 53.0548 133.204 51.1645 132.448 49.4002 131.692 47.6359 127.281 37.8063 120.854 29.6149 112.285 23.0618 107.496 19.5333 102.581 16.1307 97.1622 13.6103 96.9102 13.4842 96.7841 13.3582 96.5321 13.3582 96.5321 13.3582 96.4061 13.3582 96.4061 13.3582 96.6581 15.3746 96.9102 17.2649 97.1622 19.2812 97.2882 20.5414 97.4142 21.6756 97.6663 22.9358 97.7923 23.4399 97.5403 23.6919 97.1622 24.07 94.8938 25.7083 92.6254 27.4726 90.3571 29.1109 90.105 29.1109 89.979 29.2369 89.853 29.3629Z" fill="#F36E24" transform="matrix(1 0 0 1.0016 937 152.029)"/><path d="M66.035 26.0863C65.5309 28.7328 64.9008 31.2532 64.3967 33.8997 73.9743 29.741 83.4259 25.7083 93.0035 21.5496 86.0723 14.2404 79.2672 7.1832 72.3361 0 71.5799 2.89848 70.9498 5.54492 70.1937 8.31739 68.4294 8.44341 66.5391 8.44341 64.7748 8.69545 56.7094 9.45158 48.8961 11.4679 41.713 15.2485 33.8997 19.4072 26.7165 24.7001 20.5414 31.1272 20.4154 31.2532 20.2894 31.5053 20.0373 31.7573 21.0455 32.0093 21.9277 32.1354 22.8098 32.2614 24.9522 32.6394 27.2205 33.1435 29.3629 33.5216 29.993 33.6476 30.245 33.8997 30.3711 34.4037 31.2532 37.0502 32.1354 39.8226 33.0175 42.4691 33.0175 42.5951 33.1435 42.7211 33.1435 42.8471 42.3431 33.6476 52.6768 27.0945 66.035 26.0863Z" fill="#DF1883" transform="matrix(1 0 0 1.0016 937 152.029)"/><path d="M171.641 95.1459C171.641 89.3489 171.641 87.3326 171.641 81.5356 171.641 81.0315 171.515 80.7795 171.137 80.4014 166.096 75.3606 160.929 70.3197 155.888 65.1529 153.746 63.0105 153.746 59.86 156.014 57.7176 158.03 55.8273 161.055 55.9533 163.071 57.9697 165.214 60.112 167.356 62.2544 169.498 64.3967 171.263 66.161 173.027 67.9253 174.791 69.6896 179.58 74.4784 186.889 74.4784 191.678 69.6896 195.585 65.783 199.491 61.8763 203.398 57.9697 205.036 56.3314 207.053 55.8273 209.195 56.7094 212.345 57.9697 213.228 62.0023 210.959 64.7748 210.707 65.0268 210.455 65.2789 210.329 65.5309 205.288 70.5718 200.373 75.4866 195.333 80.5274 194.954 80.9055 194.954 81.1575 194.954 81.6616 194.954 93.3816 194.954 101.069 194.954 112.789 194.954 115.309 193.316 117.452 190.922 117.956 187.771 118.586 184.621 116.191 184.621 112.915 184.621 107.874 184.621 102.833 184.621 97.6663 184.621 97.4142 184.621 97.1622 184.621 97.0362 184.495 96.154 183.865 95.6499 183.109 95.6499 182.352 95.6499 181.722 96.2801 181.596 97.0362 181.596 97.2882 181.596 97.4142 181.596 97.6663 181.596 102.833 181.596 107.874 181.596 113.041 181.596 116.065 178.824 118.586 175.799 118.082 173.153 117.704 171.263 115.435 171.263 112.789 171.641 106.74 171.641 100.943 171.641 95.1459Z" stroke="#FFFFFF" stroke-width="6.63047" stroke-miterlimit="10" fill="#FFFFFF" transform="matrix(1 0 0 1.0016 937 152.029)"/><path d="M171.893 55.8273C171.893 49.4002 177.186 44.1074 183.613 43.9813 190.04 43.9813 195.459 49.2742 195.459 55.7013 195.459 62.2544 190.166 67.5473 183.739 67.5473 177.186 67.6733 171.893 62.3804 171.893 55.8273Z" stroke="#FFFFFF" stroke-width="6.63047" stroke-miterlimit="10" fill="#FFFFFF" transform="matrix(1 0 0 1.0016 937 152.029)"/><path d="M95.6499 103.337C94.6418 103.337 93.7596 103.337 92.7515 103.337 92.7515 103.589 92.7515 103.715 92.7515 103.967 92.7515 106.866 92.7515 109.638 92.7515 112.537 92.7515 115.561 90.4831 117.83 87.5846 117.83 84.6861 117.83 82.4177 115.435 82.4177 112.411 82.4177 109.638 82.4177 106.74 82.4177 103.967 82.4177 103.715 82.4177 103.463 82.4177 103.211 80.4014 103.211 78.259 103.211 76.1167 103.211 76.3687 102.329 76.4948 101.573 76.6208 100.691 78.5111 92.8775 80.2754 89.0968 82.1657 81.4096 82.2917 80.9055 82.1657 80.6534 81.7876 80.2754 76.7468 75.2345 71.706 70.1937 66.5391 65.1529 64.3967 63.0105 64.3967 59.734 66.6651 57.5916 68.6814 55.7013 71.706 55.8273 73.7223 57.8436 76.6208 60.6161 79.3932 63.5146 82.2917 66.4131 83.4259 67.5473 84.4341 68.5554 85.5683 69.6896 90.3571 74.4784 97.6663 74.4784 102.455 69.6896 106.362 65.783 110.268 61.8763 114.301 57.8436 115.939 56.2054 117.83 55.8273 119.972 56.5834 123.375 57.8436 124.257 62.2544 121.736 64.7748 119.594 66.9172 117.452 69.0595 115.435 71.2019 112.411 74.2264 109.386 77.3769 106.236 80.4014 105.984 80.6534 105.858 81.0315 105.984 81.4096 108 89.727 110.016 94.1377 111.907 102.581 111.907 102.833 112.033 102.959 112.033 103.211 110.016 103.211 107.874 103.211 105.858 103.211 105.858 103.589 105.858 103.715 105.858 103.967 105.858 106.866 105.858 109.764 105.858 112.537 105.858 115.561 103.589 117.83 100.691 117.704 98.0443 117.704 95.6499 115.309 95.6499 112.663 95.6499 109.764 95.6499 106.74 95.6499 103.841 95.6499 103.841 95.6499 103.589 95.6499 103.337Z" stroke="#FFFFFF" stroke-width="6.63047" stroke-miterlimit="10" fill="#FFFFFF" transform="matrix(1 0 0 1.0016 937 152.029)"/><path d="M94.2637 44.1074C100.691 44.1074 105.984 49.4002 105.984 55.9533 105.984 62.3804 100.691 67.6733 94.2637 67.6733 87.7106 67.6733 82.4177 62.3804 82.5438 55.8273 82.5438 49.2742 87.8366 44.1074 94.2637 44.1074Z" stroke="#FFFFFF" stroke-width="6.63047" stroke-miterlimit="10" fill="#FFFFFF" transform="matrix(1 0 0 1.0016 937 152.029)"/><path d="M127.533 95.1459C127.533 89.3489 127.533 87.3326 127.533 81.5356 127.533 81.0315 127.407 80.7795 127.029 80.4014 121.988 75.3606 116.821 70.3197 111.781 65.1529 109.638 63.0105 109.638 59.86 111.907 57.7176 113.923 55.8273 116.947 55.9533 118.964 57.9697 121.106 60.112 123.249 62.2544 125.391 64.3967 127.155 66.161 128.919 67.9253 130.684 69.6896 135.473 74.4784 142.782 74.4784 147.571 69.6896 151.477 65.783 155.384 61.8763 159.291 57.9697 160.929 56.3314 162.945 55.8273 165.088 56.7094 168.238 57.9697 169.12 62.0023 166.852 64.7748 166.6 65.0268 166.348 65.2789 166.222 65.5309 161.181 70.5718 156.266 75.4866 151.225 80.5274 150.847 80.9055 150.847 81.1575 150.847 81.6616 150.847 93.3816 150.847 101.069 150.847 112.789 150.847 115.309 149.209 117.452 146.814 117.956 143.664 118.586 140.513 116.191 140.513 112.915 140.513 107.874 140.513 102.833 140.513 97.6663 140.513 97.4142 140.513 97.1622 140.513 97.0362 140.387 96.154 139.757 95.6499 139.001 95.6499 138.245 95.6499 137.615 96.2801 137.489 97.0362 137.489 97.2882 137.489 97.4142 137.489 97.6663 137.489 102.833 137.489 107.874 137.489 113.041 137.489 116.065 134.716 118.586 131.692 118.082 129.046 117.704 127.155 115.435 127.155 112.789 127.533 106.74 127.533 100.943 127.533 95.1459Z" stroke="#FFFFFF" stroke-width="6.63047" stroke-linecap="round" stroke-linejoin="round" stroke-miterlimit="10" fill="#FFFFFF" transform="matrix(1 0 0 1.0016 937 152.029)"/><path d="M127.659 55.8273C127.659 49.4002 132.952 44.1074 139.379 43.9813 145.806 43.9813 151.225 49.2742 151.225 55.7013 151.225 62.2544 145.932 67.5473 139.505 67.5473 133.078 67.6733 127.785 62.3804 127.659 55.8273Z" stroke="#FFFFFF" stroke-width="6.63047" stroke-linecap="round" stroke-linejoin="round" stroke-miterlimit="10" fill="#FFFFFF" transform="matrix(1 0 0 1.0016 937 152.029)"/><path d="M171.641 95.1459C171.641 89.3489 171.641 87.3326 171.641 81.5356 171.641 81.0315 171.515 80.7795 171.137 80.4014 166.096 75.3606 160.929 70.3197 155.888 65.1529 153.746 63.0105 153.746 59.86 156.014 57.7176 158.03 55.8273 161.055 55.9533 163.071 57.9697 165.214 60.112 167.356 62.2544 169.498 64.3967 171.263 66.161 173.027 67.9253 174.791 69.6896 179.58 74.4784 186.889 74.4784 191.678 69.6896 195.585 65.783 199.491 61.8763 203.398 57.9697 205.036 56.3314 207.053 55.8273 209.195 56.7094 212.345 57.9697 213.228 62.0023 210.959 64.7748 210.707 65.0268 210.455 65.2789 210.329 65.5309 205.288 70.5718 200.373 75.4866 195.333 80.5274 194.954 80.9055 194.954 81.1575 194.954 81.6616 194.954 93.3816 194.954 101.069 194.954 112.789 194.954 115.309 193.316 117.452 190.922 117.956 187.771 118.586 184.621 116.191 184.621 112.915 184.621 107.874 184.621 102.833 184.621 97.6663 184.621 97.4142 184.621 97.1622 184.621 97.0362 184.495 96.154 183.865 95.6499 183.109 95.6499 182.352 95.6499 181.722 96.2801 181.596 97.0362 181.596 97.2882 181.596 97.4142 181.596 97.6663 181.596 102.833 181.596 107.874 181.596 113.041 181.596 116.065 178.824 118.586 175.799 118.082 173.153 117.704 171.263 115.435 171.263 112.789 171.641 106.74 171.641 100.943 171.641 95.1459Z" stroke="#FFFFFF" stroke-width="6.63047" stroke-linecap="round" stroke-linejoin="round" stroke-miterlimit="10" fill="#FFFFFF" transform="matrix(1 0 0 1.0016 937 152.029)"/><path d="M171.893 55.8273C171.893 49.4002 177.186 44.1074 183.613 43.9813 190.04 43.9813 195.459 49.2742 195.459 55.7013 195.459 62.2544 190.166 67.5473 183.739 67.5473 177.186 67.6733 171.893 62.3804 171.893 55.8273Z" stroke="#FFFFFF" stroke-width="6.63047" stroke-linecap="round" stroke-linejoin="round" stroke-miterlimit="10" fill="#FFFFFF" transform="matrix(1 0 0 1.0016 937 152.029)"/><path d="M95.6499 103.337C94.6418 103.337 93.7596 103.337 92.7515 103.337 92.7515 103.589 92.7515 103.715 92.7515 103.967 92.7515 106.866 92.7515 109.638 92.7515 112.537 92.7515 115.561 90.4831 117.83 87.5846 117.83 84.6861 117.83 82.4177 115.435 82.4177 112.411 82.4177 109.638 82.4177 106.74 82.4177 103.967 82.4177 103.715 82.4177 103.463 82.4177 103.211 80.4014 103.211 78.259 103.211 76.1167 103.211 76.3687 102.329 76.4948 101.573 76.6208 100.691 78.5111 92.8775 80.2754 89.0968 82.1657 81.4096 82.2917 80.9055 82.1657 80.6534 81.7876 80.2754 76.7468 75.2345 71.706 70.1937 66.5391 65.1529 64.3967 63.0105 64.3967 59.734 66.6651 57.5916 68.6814 55.7013 71.706 55.8273 73.7223 57.8436 76.6208 60.6161 79.3932 63.5146 82.2917 66.4131 83.4259 67.5473 84.4341 68.5554 85.5683 69.6896 90.3571 74.4784 97.6663 74.4784 102.455 69.6896 106.362 65.783 110.268 61.8763 114.301 57.8436 115.939 56.2054 117.83 55.8273 119.972 56.5834 123.375 57.8436 124.257 62.2544 121.736 64.7748 119.594 66.9172 117.452 69.0595 115.435 71.2019 112.411 74.2264 109.386 77.3769 106.236 80.4014 105.984 80.6534 105.858 81.0315 105.984 81.4096 108 89.727 110.016 94.1377 111.907 102.581 111.907 102.833 112.033 102.959 112.033 103.211 110.016 103.211 107.874 103.211 105.858 103.211 105.858 103.589 105.858 103.715 105.858 103.967 105.858 106.866 105.858 109.764 105.858 112.537 105.858 115.561 103.589 117.83 100.691 117.704 98.0443 117.704 95.6499 115.309 95.6499 112.663 95.6499 109.764 95.6499 106.74 95.6499 103.841 95.6499 103.841 95.6499 103.589 95.6499 103.337Z" fill="#76BC43" transform="matrix(1 0 0 1.0016 937 152.029)"/><path d="M94.2637 44.1074C100.691 44.1074 105.984 49.4002 105.984 55.9533 105.984 62.3804 100.691 67.6733 94.2637 67.6733 87.7106 67.6733 82.4177 62.3804 82.5438 55.8273 82.5438 49.2742 87.8366 44.1074 94.2637 44.1074Z" fill="#76BC43" transform="matrix(1 0 0 1.0016 937 152.029)"/><path d="M126.777 145.68 129.55 142.782C131.188 144.294 133.204 145.176 135.347 145.176 137.615 145.176 139.001 144.042 139.001 142.656 139.001 141.648 138.497 140.765 136.229 140.135L132.826 139.253C128.919 138.119 127.407 136.229 127.407 133.456 127.407 129.928 130.306 127.281 135.095 127.281 138.623 127.281 141.27 128.541 143.16 130.432L140.261 133.33C138.749 131.692 136.859 130.936 135.221 130.936 133.078 130.936 131.944 131.818 131.944 133.204 131.944 134.464 132.826 135.095 134.59 135.725L137.741 136.607C142.152 137.867 143.412 139.757 143.412 142.404 143.412 146.058 140.135 148.957 135.095 148.957 131.692 148.705 128.793 147.571 126.777 145.68Z" fill="#2E9A47" transform="matrix(1 0 0 1.0016 937 152.029)"/><path d="M156.518 140.135 156.518 148.453 151.981 148.453 151.981 140.135 144.168 127.533 149.083 127.533 154.25 136.355 159.417 127.533 164.205 127.533 156.518 140.135Z" fill="#2E9A47" transform="matrix(1 0 0 1.0016 937 152.029)"/><path d="M164.079 145.68 166.852 142.782C168.49 144.294 170.506 145.176 172.649 145.176 174.917 145.176 176.303 144.042 176.303 142.656 176.303 141.648 175.799 140.765 173.531 140.135L170.128 139.253C166.222 138.119 164.709 136.229 164.709 133.456 164.709 129.928 167.608 127.281 172.397 127.281 175.925 127.281 178.572 128.541 180.462 130.432L177.564 133.33C176.051 131.692 174.161 130.936 172.523 130.936 170.38 130.936 169.246 131.818 169.246 133.204 169.246 134.464 170.128 135.095 171.893 135.725L175.043 136.607C179.454 137.867 180.714 139.757 180.714 142.404 180.714 146.058 177.438 148.957 172.397 148.957 169.12 148.705 166.222 147.571 164.079 145.68Z" fill="#2E9A47" transform="matrix(1 0 0 1.0016 937 152.029)"/><path d="M181.596 127.533 199.743 127.533 199.743 131.314 192.938 131.314 192.938 148.453 188.401 148.453 188.401 131.314 181.596 131.314 181.596 127.533Z" fill="#2E9A47" transform="matrix(1 0 0 1.0016 937 152.029)"/><path d="M202.012 127.533 217.386 127.533 217.386 131.188 206.674 131.188 206.674 135.977 214.992 135.977 214.992 139.379 206.674 139.379 206.674 144.924 217.512 144.924 217.512 148.453 202.012 148.453 202.012 127.533Z" fill="#2E9A47" transform="matrix(1 0 0 1.0016 937 152.029)"/><path d="M224.317 148.453 220.159 148.453 220.159 127.533 225.956 127.533 230.618 138.749 231.627 141.27 232.635 138.749 237.298 127.533 243.095 127.533 243.095 148.453 238.81 148.453 238.81 136.355 238.81 133.33 237.676 136.355 233.265 146.94 229.862 146.94 225.452 136.355 224.317 133.33 224.317 136.355 224.317 148.453Z" fill="#2E9A47" transform="matrix(1 0 0 1.0016 937 152.029)"/><path d="M245.111 145.68 247.883 142.782C249.522 144.294 251.538 145.176 253.68 145.176 255.949 145.176 257.335 144.042 257.335 142.656 257.335 141.648 256.831 140.765 254.562 140.135L251.16 139.253C247.253 138.119 245.741 136.229 245.741 133.456 245.741 129.928 248.639 127.281 253.428 127.281 256.957 127.281 259.603 128.541 261.494 130.432L258.595 133.33C257.083 131.692 255.193 130.936 253.554 130.936 251.412 130.936 250.278 131.818 250.278 133.204 250.278 134.464 251.16 135.095 252.924 135.725L256.075 136.607C260.485 137.867 261.746 139.757 261.746 142.404 261.746 146.058 258.469 148.957 253.428 148.957 250.026 148.705 247.127 147.571 245.111 145.68Z" fill="#2E9A47" transform="matrix(1 0 0 1.0016 937 152.029)"/><path d="M279.137 141.648 269.811 141.648 269.811 137.993 279.137 137.993 279.137 141.648Z" fill="#2E9A47" transform="matrix(1 0 0 1.0016 937 152.029)"/><path d="M303.207 141.144 307.113 142.656C305.349 146.436 302.324 148.705 297.788 148.705 292.117 148.705 287.328 144.42 287.328 137.993 287.328 131.44 291.991 127.281 297.788 127.281 302.324 127.281 305.349 129.424 307.113 133.33L303.081 134.968C302.072 132.7 300.308 131.44 297.914 131.44 294.637 131.44 291.991 134.086 291.991 138.119 291.991 142.152 294.511 144.798 297.914 144.798 300.308 144.672 302.072 143.412 303.207 141.144Z" fill="#2E9A47" transform="matrix(1 0 0 1.0016 937 152.029)"/><path d="M315.935 148.705C311.902 148.705 308.751 146.436 307.995 142.782L311.776 142.152C312.28 144.042 313.792 145.176 315.809 145.176 318.077 145.176 319.841 143.664 319.841 141.396 319.841 139.127 318.203 137.615 315.809 137.615 314.17 137.615 312.91 138.245 312.028 139.127L308.751 138.119 310.012 127.407 322.614 127.407 322.614 130.81 313.162 130.81 312.658 135.347C313.666 134.842 315.053 134.59 316.439 134.59 320.849 134.59 323.874 137.363 323.874 141.396 324 145.68 320.597 148.705 315.935 148.705Z" fill="#2E9A47" transform="matrix(1 0 0 1.0016 937 152.029)"/><path d="M127.533 95.1459C127.533 89.3489 127.533 87.3326 127.533 81.5356 127.533 81.0315 127.407 80.7795 127.029 80.4014 121.988 75.3606 116.821 70.3197 111.781 65.1529 109.638 63.0105 109.638 59.86 111.907 57.7176 113.923 55.8273 116.947 55.9533 118.964 57.9697 121.106 60.112 123.249 62.2544 125.391 64.3967 127.155 66.161 128.919 67.9253 130.684 69.6896 135.473 74.4784 142.782 74.4784 147.571 69.6896 151.477 65.783 155.384 61.8763 159.291 57.9697 160.929 56.3314 162.945 55.8273 165.088 56.7094 168.238 57.9697 169.12 62.0023 166.852 64.7748 166.6 65.0268 166.348 65.2789 166.222 65.5309 161.181 70.5718 156.266 75.4866 151.225 80.5274 150.847 80.9055 150.847 81.1575 150.847 81.6616 150.847 93.3816 150.847 101.069 150.847 112.789 150.847 115.309 149.209 117.452 146.814 117.956 143.664 118.586 140.513 116.191 140.513 112.915 140.513 107.874 140.513 102.833 140.513 97.6663 140.513 97.4142 140.513 97.1622 140.513 97.0362 140.387 96.154 139.757 95.6499 139.001 95.6499 138.245 95.6499 137.615 96.2801 137.489 97.0362 137.489 97.2882 137.489 97.4142 137.489 97.6663 137.489 102.833 137.489 107.874 137.489 113.041 137.489 116.065 134.716 118.586 131.692 118.082 129.046 117.704 127.155 115.435 127.155 112.789 127.533 106.74 127.533 100.943 127.533 95.1459Z" fill="#2E9A47" transform="matrix(1 0 0 1.0016 937 152.029)"/><path d="M127.659 55.8273C127.659 49.4002 132.952 44.1074 139.379 43.9813 145.806 43.9813 151.225 49.2742 151.225 55.7013 151.225 62.2544 145.932 67.5473 139.505 67.5473 133.078 67.6733 127.785 62.3804 127.659 55.8273Z" fill="#2E9A47" transform="matrix(1 0 0 1.0016 937 152.029)"/><path d="M171.641 95.1459C171.641 89.3489 171.641 87.3326 171.641 81.5356 171.641 81.0315 171.515 80.7795 171.137 80.4014 166.096 75.3606 160.929 70.3197 155.888 65.1529 153.746 63.0105 153.746 59.86 156.014 57.7176 158.03 55.8273 161.055 55.9533 163.071 57.9697 165.214 60.112 167.356 62.2544 169.498 64.3967 171.263 66.161 173.027 67.9253 174.791 69.6896 179.58 74.4784 186.889 74.4784 191.678 69.6896 195.585 65.783 199.491 61.8763 203.398 57.9697 205.036 56.3314 207.053 55.8273 209.195 56.7094 212.345 57.9697 213.228 62.0023 210.959 64.7748 210.707 65.0268 210.455 65.2789 210.329 65.5309 205.288 70.5718 200.373 75.4866 195.333 80.5274 194.954 80.9055 194.954 81.1575 194.954 81.6616 194.954 93.3816 194.954 101.069 194.954 112.789 194.954 115.309 193.316 117.452 190.922 117.956 187.771 118.586 184.621 116.191 184.621 112.915 184.621 107.874 184.621 102.833 184.621 97.6663 184.621 97.4142 184.621 97.1622 184.621 97.0362 184.495 96.154 183.865 95.6499 183.109 95.6499 182.352 95.6499 181.722 96.2801 181.596 97.0362 181.596 97.2882 181.596 97.4142 181.596 97.6663 181.596 102.833 181.596 107.874 181.596 113.041 181.596 116.065 178.824 118.586 175.799 118.082 173.153 117.704 171.263 115.435 171.263 112.789 171.641 106.74 171.641 100.943 171.641 95.1459Z" fill="#49773D" transform="matrix(1 0 0 1.0016 937 152.029)"/><path d="M171.893 55.8273C171.893 49.4002 177.186 44.1074 183.613 43.9813 190.04 43.9813 195.459 49.2742 195.459 55.7013 195.459 62.2544 190.166 67.5473 183.739 67.5473 177.186 67.6733 171.893 62.3804 171.893 55.8273Z" fill="#49773D" transform="matrix(1 0 0 1.0016 937 152.029)"/><path d="M229.484 54.063 229.484 116.443" stroke="#49773D" stroke-width="0.945158" stroke-miterlimit="10" fill="none" transform="matrix(1 0 0 1.0016 937 152.029)"/><path d="M305.979 67.6733C302.954 66.9172 299.804 68.8075 299.174 71.832 299.048 72.4621 299.048 72.9662 299.048 73.5963L285.816 81.6616C284.429 79.8973 282.413 78.6371 280.019 78.133L280.019 62.8845C282.161 62.1284 283.799 59.986 283.799 57.5916 283.799 54.4411 281.279 51.9207 278.128 51.9207 274.978 51.9207 272.457 54.4411 272.457 57.5916 272.457 60.112 273.97 62.1284 276.238 62.8845L276.238 78.133C274.096 78.5111 272.331 79.6453 270.819 81.1575L258.343 73.5963C258.343 72.9662 258.343 72.4621 258.217 71.832 257.461 68.8075 254.436 66.9172 251.412 67.6733 248.387 68.4294 246.497 71.4539 247.253 74.4784 248.009 77.5029 251.034 79.3932 254.058 78.6371 255.193 78.3851 256.075 77.755 256.831 76.9988L268.803 84.3081C268.425 85.4422 268.173 86.5764 268.173 87.8366 268.173 89.4749 268.551 90.8611 269.307 92.2474L257.839 103.715C257.083 103.337 256.327 103.211 255.445 103.211 252.294 103.211 249.774 105.732 249.774 108.882 249.774 112.033 252.294 114.553 255.445 114.553 258.595 114.553 261.116 112.033 261.116 108.882 261.116 108 260.863 107.244 260.611 106.488L271.701 95.3979C273.466 96.9102 275.734 97.9183 278.254 97.9183 280.397 97.9183 282.413 97.1622 284.051 96.028L294.637 106.614C294.259 107.37 294.133 108.126 294.133 109.008 294.133 112.159 296.653 114.679 299.804 114.679 302.954 114.679 305.475 112.159 305.475 109.008 305.475 105.858 302.954 103.337 299.804 103.337 298.922 103.337 298.166 103.589 297.41 103.841L286.824 93.2555C287.706 91.7433 288.336 89.979 288.336 88.0887 288.336 87.0805 288.084 86.1984 287.832 85.1902L300.812 77.3769C301.568 78.133 302.45 78.6371 303.585 79.0152 306.609 79.7713 309.76 77.881 310.39 74.8565 310.894 71.5799 309.004 68.4294 305.979 67.6733Z" fill="#2E9A47" transform="matrix(1 0 0 1.0016 937 152.029)"/></g></svg>