<?xml version="1.0" encoding="UTF-8"?>
<svg id="Layer_1" data-name="Layer 1" xmlns="http://www.w3.org/2000/svg" xmlns:xlink="http://www.w3.org/1999/xlink" viewBox="0 0 600.46 368.62">
  <defs>
    <style>
      .cls-1 {
        stroke: #4a783e;
        stroke-width: .95px;
      }

      .cls-1, .cls-2, .cls-3 {
        fill: none;
      }

      .cls-1, .cls-4, .cls-5 {
        stroke-miterlimit: 10;
      }

      .cls-6 {
        fill: #f99e29;
      }

      .cls-7 {
        fill: #4a783e;
      }

      .cls-8 {
        fill: #df1a83;
      }

      .cls-9 {
        fill: #f36f26;
      }

      .cls-10 {
        fill: #1d3767;
      }

      .cls-11 {
        stroke-linecap: round;
        stroke-linejoin: round;
      }

      .cls-11, .cls-4 {
        stroke-width: 6.63px;
      }

      .cls-11, .cls-4, .cls-5 {
        fill: #fff;
        stroke: #fff;
      }

      .cls-12 {
        fill: #309a47;
      }

      .cls-3 {
        clip-path: url(#clippath);
      }

      .cls-13 {
        fill: #78bd43;
      }
    </style>
    <clipPath id="clippath">
      <rect class="cls-2" x="225.75" y="280.75" width="163.95" height="75.4"/>
    </clipPath>
  </defs>
  <g>
    <rect class="cls-5" x="168.51" y="268.77" width="278.43" height="99.35" rx="12" ry="12"/>
    <g class="cls-3">
      <g>
        <path class="cls-12" d="m240.8,315.51c-.51-5.24-1.02-10.47-1.47-15.71-4.53,2.24-9.06,4.41-13.58,6.64,1.28.77,2.49,1.47,3.76,2.17-.19.89-.45,1.72-.64,2.62-1.28,5.68-1.15,11.31.57,16.86.83,2.62,1.79,5.24,3.12,7.66.13.19.26.45.38.7.06-.13.13-.26.19-.32.7-1.28,1.4-2.49,2.1-3.77.13-.19.19-.26.38-.26,1.47,0,2.87-.06,4.34-.06h.38c-1.98-3.9-3.51-7.86-3.63-12.26-.06-2.04.13-4.09.57-6.13,1.15.51,2.3,1.21,3.51,1.85Z"/>
        <path class="cls-10" d="m267.39,343.04c-6.5,1.21-12.69.7-18.49-2.75,1.02-.89,2.04-1.72,3.12-2.62-5.17-1.15-10.2-2.36-15.37-3.51.7,5.05,1.4,10.03,2.1,15.01,1.15-1.02,2.17-1.98,3.32-3,8.35,5.88,17.54,7.22,27.48,5.43-.64-.7-1.28-1.34-1.85-1.98-.51-.58-1.02-1.09-1.59-1.66-.19-.19-.19-.32-.13-.51.45-1.34.83-2.75,1.28-4.09.06-.13.06-.19.13-.32Z"/>
        <path class="cls-6" d="m283.4,349.93c-.57-1.41-1.15-2.75-1.72-4.09.38-.32.83-.64,1.21-.96,5.04-4.09,8.48-9.2,10.46-15.33.83-2.49,1.47-5.05,1.79-7.66,0-.13,0-.26.06-.45,0,0,0-.06-.06-.13-.45.19-.83.45-1.28.64-.96.45-1.98.89-2.87,1.34-.32.19-.57.13-.83-.06-1.08-.77-2.23-1.6-3.38-2.36-.06-.06-.19-.13-.32-.19-.89,6.58-3.25,12.33-8.42,16.8-.51-1.21-.96-2.43-1.47-3.7-2.68,4.54-5.29,9.01-7.97,13.54,4.91.83,9.82,1.72,14.79,2.62Z"/>
        <path class="cls-9" d="m271.22,295.64c5.87,2.94,10.78,6.83,13.33,13.16-.7.06-1.34.19-1.98.19-.64.06-1.34.06-2.04.06,3.44,3.96,6.89,7.92,10.39,11.88,2.36-4.47,4.72-8.88,7.08-13.35-.7.06-1.34.13-2.04.19-.64.06-1.34.13-1.98.19-.32.06-.38-.06-.51-.32-.32-.96-.7-1.85-1.08-2.75-2.23-4.98-5.48-9.13-9.82-12.45-2.42-1.79-4.91-3.51-7.65-4.79-.13-.06-.19-.13-.32-.13h-.06c.13,1.02.26,1.98.38,3,.06.64.13,1.21.26,1.85.06.26-.06.38-.26.57-1.15.83-2.3,1.72-3.44,2.55-.13,0-.19.06-.26.13Z"/>
        <path class="cls-8" d="m259.17,293.98c-.26,1.34-.57,2.62-.83,3.96,4.85-2.11,9.63-4.15,14.48-6.26-3.51-3.7-6.95-7.28-10.46-10.92-.38,1.47-.7,2.81-1.08,4.22-.89.06-1.85.06-2.74.19-4.08.38-8.03,1.41-11.67,3.32-3.95,2.11-7.59,4.79-10.71,8.05-.06.06-.13.19-.26.32.51.13.96.19,1.4.26,1.08.19,2.23.45,3.32.64.32.06.45.19.51.45.45,1.34.89,2.75,1.34,4.09,0,.06.06.13.06.19,4.66-4.66,9.88-7.98,16.64-8.49Z"/>
        <path class="cls-4" d="m312.61,328.98v-6.9c0-.26-.06-.38-.26-.57-2.55-2.55-5.17-5.11-7.72-7.73-1.08-1.09-1.08-2.68.06-3.77,1.02-.96,2.55-.89,3.57.13,1.08,1.09,2.17,2.17,3.25,3.26.89.89,1.79,1.79,2.68,2.68,2.42,2.43,6.12,2.43,8.55,0,1.98-1.98,3.95-3.96,5.93-5.94.83-.83,1.85-1.09,2.93-.64,1.59.64,2.04,2.68.89,4.09-.13.13-.26.26-.32.38-2.55,2.55-5.04,5.05-7.59,7.6-.19.19-.19.32-.19.57v15.78c0,1.28-.83,2.36-2.04,2.62-1.59.32-3.19-.89-3.19-2.55v-8.05c-.06-.45-.38-.7-.77-.7s-.7.32-.77.7v8.11c0,1.53-1.4,2.81-2.93,2.55-1.34-.19-2.3-1.34-2.3-2.68.19-3.07.19-6,.19-8.94Z"/>
        <path class="cls-4" d="m312.73,309.06c0-3.26,2.68-5.94,5.93-6,3.25,0,5.99,2.68,5.99,5.94s-2.68,6-5.93,6c-3.32.06-5.99-2.62-5.99-5.94Z"/>
        <path class="cls-4" d="m274.15,333.14h-1.47v4.66c0,1.53-1.15,2.68-2.61,2.68s-2.61-1.21-2.61-2.75v-4.66h-3.19c.13-.45.19-.83.26-1.28.96-3.96,1.85-5.88,2.81-9.77.06-.26,0-.38-.19-.57-2.55-2.55-5.1-5.11-7.72-7.66-1.08-1.09-1.08-2.75.06-3.83,1.02-.96,2.55-.89,3.57.13,1.47,1.41,2.87,2.87,4.34,4.34.57.57,1.08,1.09,1.66,1.66,2.42,2.43,6.12,2.43,8.54,0,1.98-1.98,3.95-3.96,5.99-6,.83-.83,1.79-1.02,2.87-.64,1.72.64,2.17,2.87.89,4.15-1.08,1.09-2.17,2.17-3.19,3.26-1.53,1.53-3.06,3.13-4.65,4.66-.13.13-.19.32-.13.51,1.02,4.22,2.04,6.45,3,10.73,0,.13.06.19.06.32h-3.12v4.73c0,1.53-1.15,2.68-2.61,2.62-1.34,0-2.55-1.21-2.55-2.55v-4.73Z"/>
        <path class="cls-4" d="m273.45,303.12c3.25,0,5.93,2.68,5.93,6s-2.68,5.94-5.93,5.94-5.99-2.68-5.93-6c0-3.32,2.68-5.94,5.93-5.94Z"/>
        <path class="cls-11" d="m290.29,328.98v-6.9c0-.26-.06-.38-.26-.57-2.55-2.55-5.17-5.11-7.72-7.73-1.08-1.09-1.08-2.68.06-3.77,1.02-.96,2.55-.89,3.57.13,1.08,1.09,2.17,2.17,3.25,3.26.89.89,1.79,1.79,2.68,2.68,2.42,2.43,6.12,2.43,8.55,0,1.98-1.98,3.95-3.96,5.93-5.94.83-.83,1.85-1.09,2.93-.64,1.59.64,2.04,2.68.89,4.09-.13.13-.26.26-.32.38-2.55,2.55-5.04,5.05-7.59,7.6-.19.19-.19.32-.19.57v15.78c0,1.28-.83,2.36-2.04,2.62-1.59.32-3.19-.89-3.19-2.55v-8.05c-.06-.45-.38-.7-.77-.7s-.7.32-.77.7v8.11c0,1.53-1.4,2.81-2.93,2.55-1.34-.19-2.3-1.34-2.3-2.68.19-3.07.19-6,.19-8.94Z"/>
        <path class="cls-11" d="m290.35,309.06c0-3.26,2.68-5.94,5.93-6,3.25,0,5.99,2.68,5.99,5.94s-2.68,6-5.93,6c-3.25.06-5.93-2.62-5.99-5.94Z"/>
        <path class="cls-11" d="m312.61,328.98v-6.9c0-.26-.06-.38-.26-.57-2.55-2.55-5.17-5.11-7.72-7.73-1.08-1.09-1.08-2.68.06-3.77,1.02-.96,2.55-.89,3.57.13,1.08,1.09,2.17,2.17,3.25,3.26.89.89,1.79,1.79,2.68,2.68,2.42,2.43,6.12,2.43,8.55,0,1.98-1.98,3.95-3.96,5.93-5.94.83-.83,1.85-1.09,2.93-.64,1.59.64,2.04,2.68.89,4.09-.13.13-.26.26-.32.38-2.55,2.55-5.04,5.05-7.59,7.6-.19.19-.19.32-.19.57v15.78c0,1.28-.83,2.36-2.04,2.62-1.59.32-3.19-.89-3.19-2.55v-8.05c-.06-.45-.38-.7-.77-.7s-.7.32-.77.7v8.11c0,1.53-1.4,2.81-2.93,2.55-1.34-.19-2.3-1.34-2.3-2.68.19-3.07.19-6,.19-8.94Z"/>
        <path class="cls-11" d="m312.73,309.06c0-3.26,2.68-5.94,5.93-6,3.25,0,5.99,2.68,5.99,5.94s-2.68,6-5.93,6c-3.32.06-5.99-2.62-5.99-5.94Z"/>
        <path class="cls-13" d="m274.15,333.14h-1.47v4.66c0,1.53-1.15,2.68-2.61,2.68s-2.61-1.21-2.61-2.75v-4.66h-3.19c.13-.45.19-.83.26-1.28.96-3.96,1.85-5.88,2.81-9.77.06-.26,0-.38-.19-.57-2.55-2.55-5.1-5.11-7.72-7.66-1.08-1.09-1.08-2.75.06-3.83,1.02-.96,2.55-.89,3.57.13,1.47,1.41,2.87,2.87,4.34,4.34.57.57,1.08,1.09,1.66,1.66,2.42,2.43,6.12,2.43,8.54,0,1.98-1.98,3.95-3.96,5.99-6,.83-.83,1.79-1.02,2.87-.64,1.72.64,2.17,2.87.89,4.15-1.08,1.09-2.17,2.17-3.19,3.26-1.53,1.53-3.06,3.13-4.65,4.66-.13.13-.19.32-.13.51,1.02,4.22,2.04,6.45,3,10.73,0,.13.06.19.06.32h-3.12v4.73c0,1.53-1.15,2.68-2.61,2.62-1.34,0-2.55-1.21-2.55-2.55v-4.73Z"/>
        <path class="cls-13" d="m273.45,303.12c3.25,0,5.93,2.68,5.93,6s-2.68,5.94-5.93,5.94-5.99-2.68-5.93-6c0-3.32,2.68-5.94,5.93-5.94Z"/>
        <path class="cls-12" d="m289.9,354.6l1.4-1.47c.83.77,1.85,1.21,2.93,1.21,1.15,0,1.85-.57,1.85-1.28,0-.51-.26-.96-1.4-1.28l-1.72-.45c-1.98-.57-2.74-1.53-2.74-2.94,0-1.79,1.47-3.13,3.89-3.13,1.79,0,3.12.64,4.08,1.6l-1.47,1.47c-.77-.83-1.72-1.21-2.55-1.21-1.08,0-1.66.45-1.66,1.15,0,.64.45.96,1.34,1.28l1.59.45c2.23.64,2.87,1.6,2.87,2.94,0,1.85-1.66,3.32-4.21,3.32-1.72-.13-3.19-.7-4.21-1.66Z"/>
        <path class="cls-12" d="m304.95,351.79v4.22h-2.3v-4.22l-3.95-6.39h2.49l2.61,4.47,2.61-4.47h2.42l-3.89,6.39Z"/>
        <path class="cls-12" d="m308.78,354.6l1.4-1.47c.83.77,1.85,1.21,2.93,1.21,1.15,0,1.85-.57,1.85-1.28,0-.51-.26-.96-1.4-1.28l-1.72-.45c-1.98-.57-2.74-1.53-2.74-2.94,0-1.79,1.47-3.13,3.89-3.13,1.79,0,3.12.64,4.08,1.6l-1.47,1.47c-.77-.83-1.72-1.21-2.55-1.21-1.08,0-1.66.45-1.66,1.15,0,.64.45.96,1.34,1.28l1.59.45c2.23.64,2.87,1.6,2.87,2.94,0,1.85-1.66,3.32-4.21,3.32-1.66-.13-3.12-.7-4.21-1.66Z"/>
        <path class="cls-12" d="m317.64,345.4h9.18v1.92h-3.44v8.69h-2.3v-8.69h-3.44v-1.92Z"/>
        <path class="cls-12" d="m327.97,345.4h7.78v1.85h-5.42v2.43h4.21v1.72h-4.21v2.81h5.48v1.79h-7.84v-10.6Z"/>
        <path class="cls-12" d="m339.26,356h-2.1v-10.6h2.93l2.36,5.68.51,1.28.51-1.28,2.36-5.68h2.93v10.6h-2.17v-7.66l-.57,1.53-2.23,5.36h-1.72l-2.23-5.36-.57-1.53v7.66Z"/>
        <path class="cls-12" d="m349.78,354.6l1.4-1.47c.83.77,1.85,1.21,2.93,1.21,1.15,0,1.85-.57,1.85-1.28,0-.51-.26-.96-1.4-1.28l-1.72-.45c-1.98-.57-2.74-1.53-2.74-2.94,0-1.79,1.47-3.13,3.89-3.13,1.79,0,3.12.64,4.08,1.6l-1.47,1.47c-.77-.83-1.72-1.21-2.55-1.21-1.08,0-1.66.45-1.66,1.15,0,.64.45.96,1.34,1.28l1.59.45c2.23.64,2.87,1.6,2.87,2.94,0,1.85-1.66,3.32-4.21,3.32-1.72-.13-3.19-.7-4.21-1.66Z"/>
        <path class="cls-12" d="m367,352.55h-4.72v-1.85h4.72v1.85Z"/>
        <path class="cls-12" d="m379.18,352.3l1.98.77c-.89,1.92-2.42,3.07-4.72,3.07-2.87,0-5.29-2.17-5.29-5.43s2.36-5.43,5.29-5.43c2.3,0,3.83,1.09,4.72,3.07l-2.04.83c-.51-1.15-1.4-1.79-2.61-1.79-1.66,0-3,1.34-3,3.39s1.28,3.39,3,3.39c1.21-.06,2.1-.7,2.68-1.85Z"/>
        <path class="cls-12" d="m385.62,356.13c-2.04,0-3.64-1.15-4.02-3l1.91-.32c.26.96,1.02,1.53,2.04,1.53,1.15,0,2.04-.77,2.04-1.92s-.83-1.92-2.04-1.92c-.83,0-1.47.32-1.91.77l-1.66-.51.64-5.43h6.38v1.72h-4.78l-.26,2.3c.51-.26,1.21-.38,1.91-.38,2.23,0,3.76,1.41,3.76,3.45.06,2.17-1.66,3.7-4.02,3.7Z"/>
        <path class="cls-12" d="m290.29,328.98v-6.9c0-.26-.06-.38-.26-.57-2.55-2.55-5.17-5.11-7.72-7.73-1.08-1.09-1.08-2.68.06-3.77,1.02-.96,2.55-.89,3.57.13,1.08,1.09,2.17,2.17,3.25,3.26.89.89,1.79,1.79,2.68,2.68,2.42,2.43,6.12,2.43,8.55,0,1.98-1.98,3.95-3.96,5.93-5.94.83-.83,1.85-1.09,2.93-.64,1.59.64,2.04,2.68.89,4.09-.13.13-.26.26-.32.38-2.55,2.55-5.04,5.05-7.59,7.6-.19.19-.19.32-.19.57v15.78c0,1.28-.83,2.36-2.04,2.62-1.59.32-3.19-.89-3.19-2.55v-8.05c-.06-.45-.38-.7-.77-.7s-.7.32-.77.7v8.11c0,1.53-1.4,2.81-2.93,2.55-1.34-.19-2.3-1.34-2.3-2.68.19-3.07.19-6,.19-8.94Z"/>
        <path class="cls-12" d="m290.35,309.06c0-3.26,2.68-5.94,5.93-6,3.25,0,5.99,2.68,5.99,5.94s-2.68,6-5.93,6c-3.25.06-5.93-2.62-5.99-5.94Z"/>
        <path class="cls-7" d="m312.61,328.98v-6.9c0-.26-.06-.38-.26-.57-2.55-2.55-5.17-5.11-7.72-7.73-1.08-1.09-1.08-2.68.06-3.77,1.02-.96,2.55-.89,3.57.13,1.08,1.09,2.17,2.17,3.25,3.26.89.89,1.79,1.79,2.68,2.68,2.42,2.43,6.12,2.43,8.55,0,1.98-1.98,3.95-3.96,5.93-5.94.83-.83,1.85-1.09,2.93-.64,1.59.64,2.04,2.68.89,4.09-.13.13-.26.26-.32.38-2.55,2.55-5.04,5.05-7.59,7.6-.19.19-.19.32-.19.57v15.78c0,1.28-.83,2.36-2.04,2.62-1.59.32-3.19-.89-3.19-2.55v-8.05c-.06-.45-.38-.7-.77-.7s-.7.32-.77.7v8.11c0,1.53-1.4,2.81-2.93,2.55-1.34-.19-2.3-1.34-2.3-2.68.19-3.07.19-6,.19-8.94Z"/>
        <path class="cls-7" d="m312.73,309.06c0-3.26,2.68-5.94,5.93-6,3.25,0,5.99,2.68,5.99,5.94s-2.68,6-5.93,6c-3.32.06-5.99-2.62-5.99-5.94Z"/>
        <path class="cls-1" d="m341.87,308.16v31.62"/>
        <path class="cls-12" d="m380.58,315.06c-1.53-.38-3.12.57-3.44,2.11-.06.32-.06.57-.06.89l-6.7,4.09c-.7-.89-1.72-1.53-2.93-1.79v-7.73c1.08-.38,1.91-1.47,1.91-2.68,0-1.6-1.28-2.87-2.87-2.87s-2.87,1.28-2.87,2.87c0,1.28.77,2.3,1.91,2.68v7.73c-1.08.19-1.98.77-2.74,1.53l-6.31-3.83c0-.32,0-.57-.06-.89-.38-1.53-1.91-2.49-3.44-2.11-1.53.38-2.49,1.92-2.1,3.45.38,1.53,1.91,2.49,3.44,2.11.57-.13,1.02-.45,1.4-.83l6.06,3.7c-.19.57-.32,1.15-.32,1.79,0,.83.19,1.53.57,2.24l-5.8,5.81c-.38-.19-.77-.26-1.21-.26-1.59,0-2.87,1.28-2.87,2.87s1.28,2.87,2.87,2.87,2.87-1.28,2.87-2.87c0-.45-.13-.83-.26-1.21l5.61-5.62c.89.77,2.04,1.28,3.32,1.28,1.08,0,2.1-.38,2.93-.96l5.36,5.37c-.19.38-.26.77-.26,1.21,0,1.6,1.28,2.87,2.87,2.87s2.87-1.28,2.87-2.87-1.28-2.87-2.87-2.87c-.45,0-.83.13-1.21.26l-5.36-5.36c.45-.77.77-1.66.77-2.62,0-.51-.13-.96-.26-1.47l6.57-3.96c.38.38.83.64,1.4.83,1.53.38,3.12-.57,3.44-2.11.26-1.66-.7-3.26-2.23-3.64Z"/>
      </g>
    </g>
  </g>
  <g>
    <rect class="cls-5" x="168.51" y="134.64" width="278.43" height="99.35" rx="12" ry="12"/>
    <image width="199" height="87" transform="translate(221.52 146.62) scale(.87)" xlink:href="../../../../../../../../Documents/SJ_WORK/6_WEBDEV/CureAll/assets/img/CureAll_logo.png"/>
  </g>
  <g>
    <g>
      <rect class="cls-5" x=".5" y=".5" width="278.43" height="99.35" rx="12" ry="12"/>
      <image width="1200" height="167" transform="translate(19.85 33.49) scale(.2)" xlink:href="../../../../../../../../Documents/SJ_WORK/6_WEBDEV/CureAll/assets/img/SJCARES_logo.png"/>
    </g>
    <g>
      <rect class="cls-5" x="321.52" y=".5" width="278.43" height="99.35" rx="12" ry="12"/>
      <image width="492" height="330" transform="translate(391.96 4.04) scale(.28)" xlink:href="../../../../../../../../Documents/SJ_WORK/6_WEBDEV/CureAll/assets/img/SJWHO_logo.png"/>
    </g>
  </g>
</svg>