<svg width="142" height="136" xmlns="http://www.w3.org/2000/svg" xmlns:xlink="http://www.w3.org/1999/xlink" xml:space="preserve" overflow="hidden"><defs><clipPath id="clip0"><rect x="19" y="235" width="142" height="136"/></clipPath></defs><g clip-path="url(#clip0)" transform="translate(-19 -235)"><path d="M39.8678 134.53 41.3321 134.53C42.5816 134.53 43.4505 133.641 43.4505 132.45 43.4505 131.259 42.6207 130.371 41.3712 130.371L39.8678 130.371 39.8678 134.53ZM41.2931 130.879C42.2595 130.879 42.855 131.562 42.855 132.45 42.855 133.339 42.2693 134.022 41.3126 134.022L40.4828 134.022 40.4828 130.879 41.2931 130.879ZM47.3455 134.53 47.98 134.53 46.3595 130.371 45.6762 130.371 44.0557 134.53 44.6609 134.53 45.0905 133.387 46.9062 133.387 47.3455 134.53ZM45.276 132.919 46.0081 130.976 46.7402 132.919 45.276 132.919ZM49.4541 131.62 49.4443 131.22 49.7079 131.62 51.6993 134.53 52.3338 134.53 52.3338 130.371 51.7774 130.371 51.7872 133.319 51.7969 133.71 51.5431 133.319 49.5126 130.371 48.9074 130.371 48.9074 134.53 49.4638 134.53 49.4541 131.62ZM54.3253 131.62 54.3155 131.22 54.5791 131.62 56.5705 134.53 57.2051 134.53 57.2051 130.371 56.6486 130.371 56.6584 133.319 56.6682 133.71 56.4143 133.319 54.3839 130.371 53.7689 130.371 53.7689 134.53 54.3253 134.53 54.3253 131.62ZM61.842 130.381 61.1977 130.381 59.997 132.333 58.7865 130.381 58.1227 130.381 59.6846 132.831 59.6846 134.539 60.2898 134.539 60.2898 132.831 61.842 130.381ZM63.9896 130.879 65.4246 130.879 65.4246 134.539 66.0299 134.539 66.0299 130.879 67.4649 130.879 67.4649 130.381 63.9896 130.381 63.9896 130.879ZM71.1158 134.53 71.7211 134.53 71.7211 130.371 71.1158 130.371 71.1158 132.128 69.0561 132.128 69.0561 130.371 68.4508 130.371 68.4508 134.53 69.0561 134.53 69.0561 132.645 71.1158 132.645 71.1158 134.53ZM74.9718 130.312C73.8199 130.312 72.8925 131.21 72.8925 132.46 72.8925 133.71 73.8102 134.608 74.9718 134.608 76.114 134.608 77.0414 133.71 77.0414 132.46 77.0414 131.21 76.1237 130.312 74.9718 130.312M74.9718 134.071C74.1323 134.071 73.4978 133.397 73.4978 132.46 73.4978 131.523 74.1323 130.849 74.9718 130.849 75.8016 130.849 76.4361 131.523 76.4361 132.46 76.4361 133.387 75.8016 134.071 74.9718 134.071M78.779 131.806 78.7692 131.24 79.023 131.816 80.0968 134.237 80.5557 134.237 81.6295 131.816 81.8833 131.23 81.8735 131.796 81.8638 134.53 82.4397 134.53 82.4397 130.371 81.7076 130.371 80.5557 132.968 80.3409 133.495 80.1164 132.968 78.9645 130.371 78.2323 130.371 78.2323 134.53 78.7887 134.53 78.779 131.806ZM86.6374 134.53 87.2719 134.53 85.6514 130.371 84.9681 130.371 83.3476 134.53 83.9528 134.53 84.3823 133.387 86.1981 133.387 86.6374 134.53ZM84.5678 132.919 85.3 130.976 86.0321 132.919 84.5678 132.919ZM89.4683 134.588C90.3762 134.588 90.9912 134.051 90.9912 133.358 90.9912 132.85 90.7471 132.519 89.9662 132.275L89.2633 132.05C88.8143 131.904 88.5897 131.718 88.5897 131.396 88.5897 131.044 88.8924 130.8 89.4 130.8 89.81 130.8 90.2005 130.996 90.4836 131.328L90.9033 130.976C90.591 130.605 90.0931 130.312 89.4 130.312 88.5605 130.312 88.004 130.781 88.004 131.474 88.004 131.982 88.3066 132.343 88.99 132.538L89.7221 132.763C90.259 132.929 90.3957 133.143 90.3957 133.407 90.3957 133.817 90.0248 134.11 89.4683 134.11 88.9705 134.11 88.5605 133.905 88.2383 133.583L87.8478 133.963C88.2383 134.354 88.8045 134.588 89.4683 134.588M92.6605 134.715C92.7483 134.539 92.8167 134.373 92.8167 134.198 92.8167 133.885 92.6214 133.71 92.3676 133.71 92.1236 133.71 91.9381 133.905 91.9381 134.129 91.9381 134.344 92.0845 134.5 92.2895 134.539L91.9186 135.467 92.3091 135.467 92.6605 134.715ZM96.0284 134.53 96.0284 132.655 97.7562 132.655 97.7562 132.157 96.0284 132.157 96.0284 130.869 98.2834 130.869 98.2834 130.371 95.4329 130.371 95.4329 134.53 96.0284 134.53ZM100.987 130.312C99.8355 130.312 98.9179 131.21 98.9179 132.46 98.9179 133.71 99.8355 134.608 100.987 134.608 102.139 134.608 103.057 133.71 103.057 132.46 103.057 131.21 102.13 130.312 100.987 130.312M100.987 134.071C100.158 134.071 99.5134 133.397 99.5134 132.46 99.5134 131.523 100.148 130.849 100.987 130.849 101.817 130.849 102.461 131.523 102.461 132.46 102.452 133.387 101.817 134.071 100.987 134.071M105.8 134.071C105.195 134.071 104.756 133.69 104.756 133.016L104.756 130.381 104.15 130.381 104.15 133.065C104.15 134.002 104.834 134.608 105.8 134.608 106.757 134.608 107.44 133.993 107.44 133.065L107.44 130.381 106.835 130.381 106.835 133.016C106.845 133.68 106.396 134.071 105.8 134.071M109.344 131.62 109.334 131.22 109.597 131.62 111.599 134.53 112.233 134.53 112.233 130.371 111.677 130.371 111.696 133.319 111.706 133.71 111.452 133.319 109.422 130.371 108.807 130.371 108.807 134.53 109.363 134.53 109.344 131.62ZM113.668 134.53 115.133 134.53C116.382 134.53 117.251 133.641 117.251 132.45 117.251 131.259 116.421 130.371 115.181 130.371L113.678 130.371 113.678 134.53ZM115.084 130.879C116.05 130.879 116.646 131.562 116.646 132.45 116.646 133.339 116.06 134.022 115.103 134.022L114.273 134.022 114.273 130.879 115.084 130.879ZM118.442 134.53 121.322 134.53 121.322 134.051 119.047 134.051 119.047 132.616 120.765 132.616 120.765 132.128 119.047 132.128 119.047 130.869 121.302 130.869 121.302 130.371 118.452 130.371 118.452 134.53ZM122.444 134.53 123.049 134.53 123.049 132.763 123.909 132.763 124.826 134.198C124.992 134.451 125.129 134.539 125.461 134.549 125.578 134.549 125.636 134.539 125.754 134.52L125.754 134.051C125.744 134.061 125.597 134.061 125.588 134.061 125.461 134.061 125.383 134.012 125.334 133.915L124.533 132.675C125.06 132.499 125.422 132.069 125.422 131.562 125.422 130.869 124.904 130.381 124.094 130.381L122.464 130.381 122.464 134.53ZM124.016 130.859C124.524 130.859 124.816 131.152 124.816 131.562 124.816 131.943 124.543 132.284 123.987 132.284L123.049 132.284 123.049 130.859 124.016 130.859Z" fill="#64676C" transform="matrix(1.00091 0 0 1 19 235.262)"/><path d="M36.7245 133.163C37.0857 133.163 37.3785 132.88 37.3785 132.528 37.3785 132.177 37.0857 131.884 36.7245 131.884 36.3633 131.884 36.0704 132.167 36.0704 132.528 36.0704 132.88 36.3633 133.163 36.7245 133.163" fill="#C2203D" transform="matrix(1.00091 0 0 1 19 235.262)"/><path d="M16.4001 134.53 17.0346 134.53 15.4141 130.371 14.7308 130.371 13.1103 134.53 13.7155 134.53 14.1451 133.387 15.9608 133.387 16.4001 134.53ZM14.3306 132.919 15.0529 130.976 15.7851 132.919 14.3306 132.919ZM20.832 134.032 18.5477 134.032 18.5477 130.381 17.9425 130.381 17.9425 134.539 20.8223 134.539 20.8223 134.032ZM23.0968 134.588C24.0047 134.588 24.6197 134.051 24.6197 133.358 24.6197 132.85 24.3756 132.519 23.5946 132.275L22.882 132.06C22.433 131.913 22.2182 131.728 22.2182 131.406 22.2182 131.044 22.5111 130.8 23.0187 130.8 23.4287 130.8 23.8289 130.986 24.1023 131.328L24.522 130.976C24.2097 130.605 23.7118 130.322 23.0187 130.322 22.1792 130.322 21.6325 130.781 21.6325 131.474 21.6325 131.982 21.9351 132.353 22.6087 132.548L23.3408 132.772C23.8777 132.938 24.0144 133.143 24.0144 133.417 24.0144 133.817 23.6435 134.12 23.087 134.12 22.5892 134.12 22.1889 133.915 21.857 133.592L21.4763 133.973C21.8765 134.364 22.4427 134.588 23.0968 134.588M28.5537 134.53 29.1882 134.53 27.5678 130.371 26.8844 130.371 25.2639 134.53 25.8692 134.53 26.2987 133.387 28.1144 133.387 28.5537 134.53ZM26.4842 132.919 27.2066 130.976 27.9387 132.919 26.4842 132.919ZM31.8533 134.071C31.0333 134.061 30.3987 133.417 30.3987 132.46 30.3987 131.494 31.043 130.839 31.8435 130.839 32.4195 130.839 32.8099 131.093 33.0833 131.611L33.6104 131.376C33.259 130.703 32.6928 130.312 31.8435 130.312 30.7014 130.312 29.7837 131.181 29.7837 132.46 29.7837 133.729 30.7014 134.598 31.8435 134.598 32.683 134.598 33.2492 134.188 33.6007 133.534L33.093 133.309C32.8295 133.827 32.4195 134.071 31.8533 134.071" fill="#64676C" transform="matrix(1.00091 0 0 1 19 235.262)"/><path d="M137.39 105.497 137.39 94.73C137.39 94.0857 137.429 93.4805 137.448 92.9924 136.755 93.1388 134.637 93.5195 133.905 93.6464L133.944 94.1345 134.617 94.1833C135.008 94.2224 135.223 94.5348 135.223 95.1498L135.223 105.497C135.223 105.849 135.066 105.917 134.793 105.956L134.041 106.064 134.041 106.64 138.542 106.64 138.542 106.064 137.81 105.956C137.546 105.927 137.39 105.849 137.39 105.497M127.433 104.248C127.433 103.633 127.618 103.106 128.487 102.823L130.137 102.296 130.156 104.961C129.531 105.312 129.073 105.537 128.682 105.537 127.921 105.556 127.433 105.009 127.433 104.248M130.625 106.903 133.544 106.425 133.505 105.917 133.075 105.868C132.509 105.8 132.275 105.497 132.275 104.902L132.255 99.9624C132.255 98.5567 131.367 97.3853 129.463 97.3853 127.794 97.3853 125.695 98.7227 125.695 100.07 125.695 100.402 125.783 100.753 125.978 100.997L127.745 100.294C127.53 99.9234 127.442 99.6305 127.423 99.3279 127.403 98.8008 127.774 98.381 128.594 98.381 129.463 98.381 130.127 99.1034 130.127 99.9234L130.146 101.485 127.501 102.452C126.183 102.93 125.412 103.682 125.412 104.863 125.412 106.005 126.154 106.932 127.706 106.932 128.477 106.932 129.414 106.21 130.234 105.615 130.264 106.064 130.39 106.552 130.625 106.903M124.807 105.849 124.611 105.322C124.182 105.478 123.791 105.566 123.401 105.566 122.835 105.566 122.386 105.332 122.405 104.16L122.405 98.8203 124.631 98.8203 124.631 97.8148 122.405 97.8148 122.405 95.4719 120.218 96.4579 120.218 97.8246 118.949 97.8246 118.949 98.83 120.218 98.83 120.218 104.453C120.218 105.634 120.775 106.786 122.444 106.786 122.991 106.786 123.616 106.532 124.807 105.849M118.774 106.64 118.774 106.064 118.032 105.956C117.768 105.917 117.602 105.849 117.602 105.497L117.602 99.1619C117.602 98.5274 117.612 97.9319 117.651 97.4438 116.958 97.6 114.84 98.01 114.127 98.1467L114.166 98.6543 114.82 98.7031C115.269 98.7422 115.425 99.0936 115.425 99.65L115.425 105.497C115.425 105.849 115.259 105.917 114.996 105.956L114.254 106.064 114.254 106.64 118.774 106.64ZM117.817 94.6324C117.817 93.9491 117.251 93.3145 116.48 93.3145 115.718 93.3145 115.142 93.9491 115.142 94.6324 115.142 95.3157 115.718 95.9503 116.48 95.9503 117.241 95.9405 117.817 95.3157 117.817 94.6324M108.973 98.8789C110.447 98.8789 111.423 100.197 111.423 102.247 111.423 104.726 110.183 105.849 108.934 105.849 108.348 105.849 107.85 105.654 107.401 105.302L107.401 99.4743C107.811 99.1424 108.377 98.8789 108.973 98.8789M108.738 110.398 107.831 110.291C107.567 110.252 107.401 110.183 107.401 109.832L107.401 106.552C107.85 106.747 108.309 106.854 108.826 106.854 111.208 106.854 113.561 104.795 113.561 101.846 113.561 99.1424 111.96 97.4536 109.929 97.4536 108.953 97.4536 108.026 97.9808 107.333 98.6641 107.313 98.2248 107.264 97.7562 107.206 97.4731L103.936 98.1369 103.975 98.6446 104.472 98.6934C105.009 98.7422 105.244 99.0643 105.244 99.6598L105.244 109.832C105.244 110.183 105.087 110.252 104.814 110.291L104.072 110.398 104.072 110.974 108.748 110.974 108.748 110.398ZM103.33 103.916C103.33 102.706 102.666 101.866 101.046 101.339L99.9234 100.968C98.7129 100.568 98.3908 100.07 98.3908 99.4548 98.3908 98.7519 98.9179 98.2736 99.8648 98.2736 101.124 98.2736 101.641 99.0448 102.071 100.167L102.735 100.167 102.715 97.9905C101.807 97.6 101.202 97.4243 100.294 97.4243 98.3224 97.4243 96.8581 98.6543 96.8581 100.285 96.8581 101.583 97.6098 102.364 99.2986 102.901L100.275 103.223C101.378 103.574 101.632 104.121 101.632 104.765 101.632 105.507 101.066 106.142 99.9429 106.142 98.6836 106.142 98.1467 105.39 97.6879 103.887L96.9265 103.887 97.0436 106.317C97.4927 106.562 98.5372 106.913 99.6403 106.913 101.602 106.923 103.33 105.849 103.33 103.916M93.666 102.286C93.666 104.599 92.7776 105.937 91.4988 105.937 90.1321 105.937 89.1267 104.424 89.1267 102.022 89.1267 99.7184 89.9857 98.3712 91.2938 98.3712 92.6312 98.3712 93.666 99.8941 93.666 102.286M86.94 102.315C86.94 104.931 88.6678 106.864 91.2255 106.864 93.9003 106.864 95.8526 104.58 95.8526 101.983 95.8526 99.3865 94.0857 97.4341 91.5281 97.4341 88.8631 97.4438 86.94 99.7379 86.94 102.315M78.2909 106.025 77.2756 105.917C76.9925 105.878 76.8071 105.781 76.8071 105.351L76.8071 100.626 82.5764 100.626 82.5764 105.351C82.5764 105.771 82.4007 105.878 82.1176 105.917L81.1023 106.025 81.1023 106.64 86.4616 106.64 86.4616 106.025 85.4464 105.917C85.1633 105.878 84.9778 105.781 84.9778 105.351L84.9778 94.9253C84.9778 94.5055 85.1535 94.3981 85.4464 94.3591L86.4616 94.2517 86.4616 93.6367 81.1023 93.6367 81.1023 94.2517 82.1176 94.3591C82.4007 94.3981 82.5764 94.4957 82.5764 94.9253L82.5764 99.6305 76.8071 99.6305 76.8071 94.9253C76.8071 94.5055 76.9828 94.3981 77.2756 94.3591L78.2909 94.2517 78.2909 93.6367 72.9316 93.6367 72.9316 94.2517 73.9468 94.3591C74.2299 94.3981 74.4056 94.4957 74.4056 94.9253L74.4056 105.361C74.4056 105.781 74.2299 105.888 73.9468 105.927L72.9316 106.034 72.9316 106.649 78.2909 106.649 78.2909 106.025ZM63.8041 106.064 62.9841 105.956C62.7206 105.917 62.5546 105.849 62.5546 105.497L62.5546 99.65C62.9841 99.2791 63.6187 98.9667 64.2434 98.9667 65.2977 98.9667 65.8249 99.5817 65.8249 100.46L65.8249 105.497C65.8249 105.849 65.6492 105.917 65.3953 105.956L64.6632 106.064 64.6632 106.64 69.0756 106.64 69.0756 106.064 68.4118 105.956C68.1482 105.917 67.9823 105.849 67.9823 105.497L67.9823 100.031C67.9823 98.6739 67.0939 97.4634 65.3368 97.4634 64.3411 97.4634 63.3063 98.01 62.5448 98.8496L62.5448 94.7203C62.5448 94.076 62.5839 93.4707 62.5937 92.9826 61.9006 93.1291 59.7822 93.5098 59.0501 93.6367L59.0891 94.1248 59.7627 94.1736C60.1532 94.2126 60.3679 94.525 60.3679 95.14L60.3679 105.488C60.3679 105.839 60.2117 105.907 59.9384 105.947L59.2844 106.054 59.2844 106.63 63.7846 106.63 63.7846 106.064ZM53.5736 101.446C53.5736 99.3572 54.6084 98.4396 55.7798 98.4396 56.7267 98.4396 57.3417 98.8105 58.0055 100.148L58.6303 100.148 58.6303 98.1272C57.9567 97.7367 57.2734 97.4438 56.0824 97.4438 53.8958 97.4438 51.5822 99.2205 51.5822 102.286 51.5822 105.4 53.8079 106.815 55.7115 106.815 56.961 106.815 58.2203 105.673 58.9134 105.058L58.562 104.619C57.9372 105.039 57.2148 105.351 56.4632 105.351 54.6084 105.361 53.5736 103.496 53.5736 101.446M49.0245 106.064 48.2045 105.956C47.9507 105.917 47.775 105.849 47.775 105.497L47.775 100.665C48.146 99.9234 48.7414 99.1912 49.5419 99.1034 50.0886 99.035 50.606 99.2596 51.055 99.5427L51.5724 97.7562C51.1819 97.4438 50.6157 97.2681 49.9715 97.3365 48.9953 97.4438 48.351 98.3908 47.7262 99.6208 47.7262 98.9179 47.6872 97.971 47.5798 97.4829L44.3095 98.1467 44.3486 98.6543 44.9343 98.7031C45.4126 98.7422 45.6079 99.0741 45.6079 99.6696L45.6079 105.497C45.6079 105.849 45.4517 105.917 45.1783 105.956L44.4267 106.064 44.4267 106.64 49.0148 106.64 49.0148 106.064ZM37.8276 104.248C37.8276 103.633 38.0033 103.106 38.8721 102.823L40.5316 102.296 40.5512 104.961C39.9264 105.312 39.4676 105.537 39.0771 105.537 38.3059 105.556 37.8276 105.009 37.8276 104.248M41.01 106.903 43.9288 106.425 43.8898 105.917 43.47 105.868C42.9038 105.8 42.6695 105.497 42.6695 104.902L42.65 99.9624C42.65 98.5567 41.7616 97.3853 39.8581 97.3853 38.1888 97.3853 36.09 98.7227 36.09 100.07 36.09 100.402 36.1778 100.753 36.373 100.997L38.1302 100.294C37.9154 99.9234 37.8276 99.6305 37.8081 99.3279 37.7885 98.8008 38.1595 98.381 38.9795 98.381 39.8483 98.381 40.5121 99.1034 40.5121 99.9234L40.5316 101.485 37.8764 102.452C36.5585 102.93 35.7971 103.682 35.7971 104.863 35.7971 106.005 36.5488 106.932 38.0912 106.932 38.8526 106.932 39.7995 106.21 40.6195 105.615 40.6585 106.064 40.7854 106.552 41.01 106.903M31.209 98.3517C31.9021 98.3517 32.8587 98.8496 33.0735 100.724L29.4421 100.851C29.5885 99.2498 30.3402 98.3517 31.209 98.3517M35.0649 105.097 34.6549 104.609C33.9228 105.029 33.2102 105.361 32.4097 105.361 30.5744 105.361 29.5299 103.662 29.4225 101.69L34.899 101.69 34.899 101.144C34.899 99.0155 33.6007 97.4341 31.4823 97.4341 29.5592 97.4341 27.4799 99.2986 27.4799 102.188 27.4799 105.351 29.6471 106.825 31.6287 106.825 32.8978 106.835 34.3426 105.751 35.0649 105.097M26.6013 103.916C26.6013 102.706 25.9375 101.866 24.3268 101.339L23.2042 100.968C21.9937 100.568 21.6715 100.07 21.6715 99.4548 21.6715 98.7519 22.2084 98.2736 23.1456 98.2736 24.4049 98.2736 24.9223 99.0448 25.3518 100.167L26.0058 100.167 25.9863 97.9905C25.0785 97.6 24.4732 97.4243 23.5654 97.4243 21.5934 97.4243 20.1292 98.6543 20.1292 100.285 20.1292 101.583 20.8711 102.364 22.5696 102.901L23.5458 103.223C24.6489 103.574 24.9028 104.121 24.9028 104.765 24.9028 105.507 24.3366 106.142 23.2139 106.142 21.9546 106.142 21.4177 105.39 20.9492 103.887L20.1877 103.887 20.3146 106.317C20.7637 106.562 21.8082 106.913 22.9113 106.913 24.8735 106.923 26.6013 105.849 26.6013 103.916M15.4044 98.3517C16.0975 98.3517 17.0639 98.8496 17.2689 100.724L13.6375 100.851C13.7936 99.2498 14.5356 98.3517 15.4044 98.3517M19.2701 105.097 18.8601 104.609C18.128 105.029 17.4153 105.361 16.6148 105.361 14.7796 105.361 13.7351 103.662 13.6277 101.69L19.1041 101.69 19.1041 101.144C19.1041 99.0155 17.8058 97.4341 15.6875 97.4341 13.7644 97.4341 11.6851 99.2986 11.6851 102.188 11.6851 105.351 13.8522 106.825 15.8339 106.825 17.1029 106.835 18.538 105.751 19.2701 105.097M4.89074 99.8941C4.51979 99.8941 4.19764 99.855 3.8755 99.8453L3.8755 94.5738C4.31478 94.525 4.78336 94.525 5.17384 94.525 6.64789 94.525 7.5948 95.4719 7.5948 97.2096 7.5948 99.0741 6.55027 99.9136 4.89074 99.8941M12.1732 106.61 12.1536 106.152C11.2946 106.044 10.6796 105.712 9.84005 104.677 8.84433 103.486 7.97552 101.846 7.29218 100.568 8.89314 100.109 9.96696 98.6836 9.96696 97.1119 9.96696 95.14 8.38552 93.5586 5.69122 93.5586 4.62717 93.5586 3.69978 93.666 2.02072 93.666 1.39596 93.6855 0.673575 93.666-0.00976196 93.6464L-0.00976196 94.2614 1.00548 94.3688C1.28858 94.4079 1.47406 94.5445 1.47406 94.8472L1.47406 105.371C1.47406 105.79 1.29834 105.898 1.00548 105.937L0 106.025 0 106.64 5.17384 106.64 5.17384 106.025 4.22693 105.898C3.99264 105.859 3.8755 105.761 3.8755 105.507L3.8755 100.763C4.26597 100.763 4.67598 100.782 4.93955 100.802 5.77908 102.296 6.62837 104.004 7.66314 105.351 8.53195 106.513 9.54719 106.757 10.7284 106.757 11.1774 106.767 11.7241 106.679 12.1732 106.61" fill="#64676C" transform="matrix(1.00091 0 0 1 19 235.262)"/><path d="M138.151 85.2902C138.151 84.0797 137.487 83.2402 135.877 82.7033L134.754 82.3323C133.544 81.9321 133.231 81.4342 133.231 80.8192 133.231 80.1164 133.758 79.638 134.705 79.638 135.965 79.638 136.482 80.4092 136.911 81.5319L137.565 81.5319 137.546 79.3549C136.638 78.9645 136.033 78.7887 135.125 78.7887 133.153 78.7887 131.689 80.0188 131.689 81.649 131.689 82.9473 132.431 83.7185 134.129 84.2652L135.105 84.5776C136.209 84.929 136.462 85.4757 136.462 86.12 136.462 86.8619 135.886 87.4866 134.774 87.4866 133.505 87.4866 132.977 86.735 132.509 85.2414L131.747 85.2414 131.874 87.6624C132.323 87.9064 133.368 88.2578 134.471 88.2578 136.423 88.2969 138.151 87.2231 138.151 85.2902M130.429 77.9492C130.429 78.4959 130.019 78.984 129.375 79.5307L129.727 79.843C130.957 78.9449 131.913 77.8711 131.913 76.4849 131.913 75.5575 131.279 75.0402 130.595 75.0402 129.385 75.0402 129.141 76.358 129.297 76.8363 129.98 77.0706 130.429 77.3537 130.429 77.9492M123.879 87.4378 123.147 87.3305C122.893 87.2914 122.718 87.2231 122.718 86.8716L122.718 81.0242C123.147 80.6533 123.782 80.3409 124.406 80.3409 125.451 80.3409 125.988 80.9559 125.988 81.8345L125.988 86.8716C125.988 87.2231 125.812 87.2914 125.568 87.3305L124.836 87.4378 124.836 88.0138 129.336 88.0138 129.336 87.4378 128.584 87.3305C128.321 87.2914 128.155 87.2231 128.155 86.8716L128.155 81.4049C128.155 80.048 127.267 78.8376 125.431 78.8376 124.475 78.8376 123.43 79.4233 122.659 80.2921 122.639 79.7845 122.591 79.1695 122.522 78.8376L119.252 79.5014 119.291 80.009 119.877 80.0578C120.355 80.0968 120.55 80.4287 120.55 81.0242L120.55 86.8619C120.55 87.2133 120.394 87.2816 120.121 87.3207L119.369 87.4281 119.369 88.004 123.869 88.004 123.869 87.4378ZM114.859 79.7259C115.552 79.7259 116.519 80.2238 116.724 82.098L113.092 82.225C113.239 80.6142 113.99 79.7259 114.859 79.7259M118.725 86.4616 118.315 85.9735C117.593 86.3933 116.88 86.7252 116.07 86.7252 114.244 86.7252 113.19 85.0266 113.082 83.0547L118.559 83.0547 118.559 82.508C118.559 80.3799 117.261 78.7985 115.142 78.7985 113.219 78.7985 111.14 80.6533 111.14 83.5623 111.14 86.7252 113.307 88.1993 115.279 88.1993 116.548 88.209 117.993 87.1157 118.725 86.4616M108.582 87.4378 107.762 87.3305C107.508 87.2914 107.333 87.2231 107.333 86.8716L107.333 82.0395C107.704 81.2976 108.299 80.5654 109.1 80.4776 109.646 80.4092 110.164 80.6338 110.613 80.9168L111.13 79.1304C110.74 78.818 110.173 78.6423 109.529 78.7106 108.553 78.818 107.909 79.7649 107.284 80.9949 107.284 80.2921 107.245 79.3452 107.137 78.8473L103.867 79.5111 103.906 80.0188 104.492 80.0676C104.97 80.1066 105.166 80.4385 105.166 81.034L105.166 86.8716C105.166 87.2231 105.009 87.2914 104.736 87.3305L103.994 87.4378 103.994 88.0138 108.582 88.0138 108.582 87.4378ZM96.0479 83.4257C96.0479 80.9461 97.2974 79.8235 98.5469 79.8235 99.1327 79.8235 99.6305 80.0188 100.08 80.3702L100.08 86.1981C99.6696 86.53 99.0936 86.7935 98.5079 86.7935 97.0241 86.8033 96.0479 85.4854 96.0479 83.4257M103.594 87.799 103.555 87.2914 103.037 87.2328C102.471 87.184 102.237 86.8619 102.237 86.2664L102.237 76.1042C102.237 75.4502 102.276 74.8547 102.286 74.3666L98.6543 75.0109 98.6934 75.499 99.4548 75.5478C99.8453 75.5868 100.06 75.8992 100.06 76.5142L100.06 79.1109C99.6208 78.9156 99.1522 78.8083 98.6348 78.8083 96.2431 78.8083 93.9003 80.868 93.9003 83.8162 93.9003 86.5202 95.5012 88.209 97.5317 88.209 98.5079 88.209 99.4548 87.6624 100.148 86.979 100.187 87.4183 100.294 87.9259 100.451 88.2676L103.594 87.799ZM92.026 86.8716 92.026 76.1042C92.026 75.4502 92.065 74.8547 92.0845 74.3666 91.3914 74.5032 89.2731 74.8937 88.5409 75.0109L88.58 75.499 89.2633 75.5478C89.6538 75.5868 89.8686 75.8992 89.8686 76.5142L89.8686 86.8619C89.8686 87.2133 89.7124 87.2816 89.4488 87.3207L88.6971 87.4281 88.6971 88.004 93.1974 88.004 93.1974 87.4281 92.475 87.3207C92.1919 87.2914 92.026 87.2231 92.026 86.8716M88.1212 88.0138 88.1212 87.4378 87.3793 87.3305C87.1059 87.2914 86.9497 87.2231 86.9497 86.8716L86.9497 80.5264C86.9497 79.8918 86.9693 79.2964 86.9986 78.8083 86.3055 78.9645 84.1871 79.3745 83.4745 79.5111L83.5135 80.0188 84.1676 80.0676C84.6166 80.1066 84.7728 80.4483 84.7728 81.0145L84.7728 86.8619C84.7728 87.2133 84.6166 87.2816 84.3433 87.3207L83.5916 87.4281 83.5916 88.004 88.1212 88.004ZM87.1547 75.9968C87.1547 75.3135 86.5885 74.679 85.8174 74.679 85.0559 74.679 84.48 75.3135 84.48 75.9968 84.48 76.6899 85.0462 77.3147 85.8174 77.3147 86.5885 77.3147 87.1547 76.6802 87.1547 75.9968M77.6368 87.4378 76.8168 87.3305C76.5533 87.2914 76.3873 87.2231 76.3873 86.8716L76.3873 81.0242C76.8168 80.6533 77.4514 80.3409 78.0761 80.3409 79.1304 80.3409 79.6576 80.9559 79.6576 81.8345L79.6576 86.8716C79.6576 87.2231 79.4818 87.2914 79.228 87.3305L78.4959 87.4378 78.4959 88.0138 82.9083 88.0138 82.9083 87.4378 82.2445 87.3305C81.9809 87.2914 81.8149 87.2231 81.8149 86.8716L81.8149 81.4049C81.8149 80.048 80.9266 78.8376 79.1597 78.8376 78.164 78.8376 77.1292 79.3842 76.3678 80.2238L76.3678 76.0944C76.3678 75.4404 76.4068 74.8449 76.4264 74.3568 75.7333 74.4935 73.6149 74.884 72.8828 75.0011L72.9218 75.4892 73.5954 75.538C73.9859 75.5771 74.2006 75.8894 74.2006 76.5044L74.2006 86.8521C74.2006 87.2036 74.0444 87.2719 73.7711 87.3109L73.1171 87.4183 73.1171 87.9943 77.6173 87.9943 77.6173 87.4378ZM71.9066 87.2036 71.9456 84.3726 71.1256 84.3726C70.6082 86.4812 69.9542 87.2328 67.6504 87.2328 64.9853 87.2328 63.0818 84.9973 63.0037 81.4928 62.9353 78.0175 64.7999 75.7528 67.543 75.7528 69.4954 75.7528 70.4227 76.563 70.9987 78.4568L71.8187 78.4568 71.7601 75.6649C70.6375 75.2061 69.4954 74.7863 67.8065 74.7863 63.3551 74.7863 60.3094 77.7735 60.3094 81.6685 60.3094 85.4757 63.1208 88.2578 67.5332 88.2578 69.2318 88.2578 70.2861 87.9455 71.9066 87.2036M52.4705 79.7259C53.1636 79.7259 54.13 80.2238 54.3448 82.098L50.7134 82.225C50.85 80.6142 51.6017 79.7259 52.4705 79.7259M56.3362 86.4616 55.9262 85.9735C55.1941 86.3933 54.4815 86.7252 53.681 86.7252 51.8457 86.7252 50.8012 85.0266 50.6938 83.0547L56.1703 83.0547 56.1703 82.508C56.1703 80.3799 54.872 78.7985 52.7536 78.7985 50.8305 78.7985 48.7512 80.6533 48.7512 83.5623 48.7512 86.7252 50.9184 88.1993 52.9 88.1993 54.1691 88.209 55.6041 87.1157 56.3362 86.4616M40.6585 83.4257C40.6585 80.9461 41.8983 79.8235 43.1478 79.8235 43.7336 79.8235 44.2314 80.0188 44.6805 80.3702L44.6805 86.1981C44.2705 86.53 43.7043 86.7935 43.1186 86.7935 41.6347 86.8033 40.6585 85.4854 40.6585 83.4257M48.2045 87.799 48.1655 87.2914 47.6481 87.2328C47.0819 87.184 46.8476 86.8619 46.8476 86.2664L46.8476 76.1042C46.8476 75.4502 46.8867 74.8547 46.8964 74.3666L43.265 75.0109 43.304 75.499 44.0655 75.5478C44.4559 75.5868 44.6707 75.8992 44.6707 76.5142L44.6707 79.1109C44.2217 78.9156 43.7628 78.8083 43.2455 78.8083 40.8635 78.8083 38.5109 80.868 38.5109 83.8162 38.5109 86.5202 40.1119 88.209 42.1424 88.209 43.1186 88.209 44.0655 87.6624 44.7586 86.979 44.7976 87.4183 44.905 87.9259 45.0612 88.2676L48.2045 87.799ZM34.9283 88.2774 37.9935 87.799 37.9545 87.2914 37.5054 87.2328C36.9392 87.1645 36.705 86.8619 36.705 86.2664L36.705 80.5264C36.705 79.8918 36.7245 79.2964 36.7538 78.8083L33.2297 79.5111 33.2687 80.0188 33.9228 80.0676C34.3621 80.1066 34.528 80.4483 34.528 81.0145L34.528 86.2664C34.079 86.6178 33.5128 86.8814 32.9759 86.8814 31.9314 86.8814 31.3944 86.2274 31.3944 85.3L31.3944 80.5264C31.3944 79.8918 31.414 79.2964 31.453 78.8083L27.929 79.5111 27.968 80.0188 28.6221 80.0676C29.0711 80.1066 29.2273 80.4483 29.2273 81.0145L29.2273 85.9345C29.2273 87.145 30.1352 88.3262 31.8142 88.3262 32.7416 88.3262 33.8447 87.7307 34.6257 86.979 34.6647 87.4378 34.7721 87.9259 34.9283 88.2774M26.4256 76.2994C26.4256 75.8797 26.6013 75.7723 26.9039 75.7333L27.8997 75.6356 27.8997 75.0206 22.472 75.0206 22.472 75.6356 23.5946 75.7235C23.8289 75.743 23.9363 75.8602 23.9363 76.1237L23.9363 87.8186C23.9363 89.9467 23.048 90.9424 21.3006 91.616L21.5446 92.1626C24.5708 91.7233 26.4256 90.1907 26.4256 87.0864L26.4256 76.2994ZM19.2115 86.8912C19.2115 86.2176 18.6844 85.6221 17.9327 85.6221 17.181 85.6221 16.6539 86.2176 16.6539 86.8912 16.6539 87.555 17.181 88.1602 17.9327 88.1602 18.6844 88.1505 19.2115 87.555 19.2115 86.8912M15.6777 87.2231 15.4825 86.6959C15.0529 86.8521 14.6625 86.94 14.272 86.94 13.7058 86.94 13.2567 86.7155 13.2763 85.5343L13.2763 80.1945 15.502 80.1945 15.502 79.189 13.2763 79.189 13.2763 76.8363 11.0896 77.8223 11.0896 79.189 9.83029 79.189 9.83029 80.1945 11.0896 80.1945 11.0896 85.8174C11.0896 86.9888 11.646 88.1505 13.3153 88.1505 13.862 88.1505 14.4867 87.9064 15.6777 87.2231M9.32267 84.1969C9.32267 82.508 8.65885 81.3464 6.12075 80.5264L4.48074 79.9992C2.96763 79.5014 2.46977 78.7887 2.46977 77.7637 2.46977 76.5337 3.37764 75.8016 4.78336 75.8016 6.18908 75.8016 7.13599 76.3971 7.70218 78.3104L8.41481 78.3104 8.41481 75.5868C7.34099 75.0987 6.33551 74.7961 5.06645 74.7961 2.6162 74.7961 0.722385 76.358 0.722385 78.7106 0.722385 80.4092 1.50334 81.5904 3.94383 82.3616L5.3886 82.8204C6.97004 83.3281 7.4679 84.07 7.4679 85.1731 7.4679 86.3152 6.54051 87.2621 4.83217 87.2621 3.01644 87.2621 2.17692 86.5983 1.61072 84.5288L0.80048 84.5288 0.820004 87.4476C2.31358 88.0236 3.32883 88.2383 4.62717 88.2383 7.22385 88.2383 9.32267 86.6276 9.32267 84.1969" fill="#64676C" transform="matrix(1.00091 0 0 1 19 235.262)"/><path d="M139.118 73.8004C137.858 73.8004 136.911 72.834 136.911 71.5454 136.911 70.2568 137.858 69.2904 139.118 69.2904 140.387 69.2904 141.343 70.2568 141.343 71.5454 141.343 72.834 140.387 73.8004 139.118 73.8004M139.118 68.812C137.575 68.812 136.375 70.0127 136.375 71.5454 136.375 73.078 137.575 74.2787 139.118 74.2787 140.66 74.2787 141.87 73.078 141.87 71.5454 141.87 70.0127 140.66 68.812 139.118 68.812" fill="#64676C" transform="matrix(1.00091 0 0 1 19 235.262)"/><path d="M139.166 71.3989 138.659 71.3989 138.659 70.6277 139.196 70.6277C139.44 70.6277 139.596 70.7839 139.596 71.0182 139.596 71.2037 139.459 71.3989 139.166 71.3989M139.645 71.6528C139.928 71.4966 140.094 71.2525 140.094 70.9889 140.094 70.5497 139.781 70.2568 139.293 70.2568L138.141 70.2568 138.141 72.8047 138.659 72.8047 138.659 71.7601 139.137 71.7601 139.742 72.8047 140.299 72.8047 139.625 71.6723 139.645 71.6528Z" fill="#64676C" transform="matrix(1.00091 0 0 1 19 235.262)"/><path d="M71.3404 44.2217C71.2623 44.4462 71.0378 44.4657 71.0378 44.4657 67.1232 44.5926 63.7651 46.1643 61.0708 49.1514 61.0708 49.1514 60.7682 49.4443 60.0067 48.8488 59.421 48.3998 59.6358 47.9117 59.6358 47.9117 60.6706 45.2955 63.3453 43.5774 67.582 42.7964L67.7089 42.7769C68.5777 42.6597 70.5887 42.3766 71.272 43.7336 71.272 43.7433 71.4185 43.9971 71.3404 44.2217M83.4452 57.1758 83.4159 57.1465C84.9095 54.9891 86.979 52.2167 87.7112 51.6993 87.76 51.6798 87.799 51.6603 87.8576 51.631 90.0833 51.5041 91.3426 50.7231 91.6648 50.4888 92.0845 50.1862 93.3243 48.9953 93.5195 48.7707 93.7343 48.5462 94.3688 47.1014 94.6324 46.4962L94.6324 46.4962 94.6031 46.545 94.7105 46.301 94.73 46.2326 94.896 45.7055C94.8862 45.5395 94.8081 45.4029 94.6714 45.3248 94.5738 45.276 94.4469 45.276 94.3103 45.2857 94.32 45.276 94.32 45.2564 94.32 45.2564 94.3981 45.0905 94.486 44.8659 94.486 44.7195L94.486 44.6805C94.4664 44.5145 94.3688 44.3778 94.2322 44.2998 94.0857 44.2217 93.8905 44.2217 93.6855 44.2705 93.5781 44.1338 93.4707 44.0557 93.4414 44.0459 93.4024 44.0167 93.1583 43.9288 92.6995 44.2021 92.5238 44.3095 92.3481 44.495 92.2017 44.6707 92.2212 44.534 92.231 44.3974 92.231 44.3974 92.1919 44.2509 92.0845 44.124 91.9283 44.0655 91.7136 43.9874 91.45 44.0362 91.1864 44.2119 90.9033 44.4071 90.5129 45.0124 90.4055 45.1881 90.3079 45.2662 89.9271 45.5883 89.7026 45.9886 88.9705 46.2229 88.5214 46.2131 88.3359 46.135 88.7752 45.8812 89.1267 45.6371 89.3219 45.4126 89.7514 44.8952 89.9955 44.3486 89.9955 43.8995 89.9955 43.8214 89.9857 43.7531 89.9759 43.675 89.9271 43.47 89.8198 43.3138 89.6636 43.2259 89.2243 43.0112 88.7069 43.4505 88.5995 43.5383 88.5897 43.5481 88.4433 43.7043 88.3652 43.7921 88.1993 43.8312 87.8576 43.9386 87.6233 44.1338 87.4574 44.2705 87.2719 44.3388 87.0474 44.4169 86.774 44.5048 86.4714 44.6121 86.1785 44.8659L86.159 44.8855C86.1688 44.8757 86.1688 44.8757 86.1785 44.8757 86.12 44.9148 85.6416 45.2369 85.4952 45.3345 84.8021 45.6957 84.4409 46.0569 84.0504 46.4376 83.2792 47.2088 82.303 48.1557 77.9687 49.6005 77.9297 48.0093 76.9535 43.7433 76.7583 42.1033 76.358 39.2138 73.0097 35.2407 70.5985 32.7318 72.8632 34.0497 74.1421 34.2352 75.3818 32.5366 75.7137 32.0192 76.2311 32.5756 76.6997 32.4878 77.383 32.1266 77.2952 31.9411 77.2952 31.4433 77.5002 30.9064 78.0371 31.1699 78.4373 31.1114 79.4526 30.9454 78.8473 29.8813 79.2476 29.3542 83.6892 29.0906 78.6814 25.0004 81.6685 23.3116 83.6112 22.4037 84.3531 21.1932 85.2219 20.0218 85.9345 19.0553 86.0907 19.807 86.6276 19.0163 87.594 15.5313 85.9247 11.236 83.7673 8.27814 72.7559-5.90598 60.1629 0.624765 56.4827 9.41053 54.9598 11.646 55.4284 14.887 55.3503 17.5618 55.0672 18.4891 54.5108 18.4696 53.7103 17.9132 53.5248 19.7484 54.9696 20.1194 55.6041 20.2365 55.6724 20.4708 56.0922 20.832 56.2679 21.0761 55.692 21.242 54.4912 20.9101 54.1008 20.6953 54.0812 21.1151 54.1398 21.4568 54.4717 21.8375 54.7353 23.1456 55.3991 23.6142 56.3558 23.9949 58.1227 24.7173 57.2929 27.1382 57.0879 28.134 57.0196 28.3585 56.961 28.5732 56.8927 28.788 55.2624 29.2078 54.1691 30.6916 53.7298 32.2242 53.5346 35.9533 51.6115 39.0381 51.6407 42.894 51.6407 42.894 51.6115 43.4602 51.6407 43.6848 52.5974 47.8531 51.3772 53.3198 51.5724 57.6151 37.6616 59.6846 24.8735 64.1556 13.9596 70.4423 30.1352 63.931 49.0148 60.1922 69.1927 60.1922 89.3707 60.1922 108.25 63.9408 124.426 70.4423 112.643 63.6577 98.6543 58.9915 83.4452 57.1758" fill="#C2203D" transform="matrix(1.00091 0 0 1 19 235.262)"/><path d="M6.0817 123.528 6.0817 120.599 8.73695 120.599 8.73695 119.926 6.0817 119.926 6.0817 117.827 9.54719 117.827 9.54719 117.173 5.30074 117.173 5.30074 123.518 6.0817 123.518ZM11.0603 117.983C11.3434 117.983 11.5777 117.768 11.5777 117.485 11.5777 117.202 11.3434 116.978 11.0603 116.978 10.787 116.978 10.5527 117.212 10.5527 117.485 10.5527 117.768 10.787 117.983 11.0603 117.983M11.4313 118.842 10.7089 118.842 10.7089 123.528 11.4313 123.528 11.4313 118.842ZM15.131 119.398C15.7948 119.398 16.2537 119.808 16.2537 120.589L16.2537 123.528 16.9858 123.528 16.9858 120.443C16.9858 119.438 16.322 118.744 15.2872 118.744 14.6917 118.744 14.1451 118.969 13.7546 119.379L13.7448 118.842 13.0224 118.842 13.0224 123.528 13.7448 123.528 13.7448 120.013C14.1841 119.574 14.682 119.398 15.131 119.398M21.9644 123.528 22.6868 123.528 22.6868 116.929 21.9644 116.929 21.9644 119.242C21.5837 118.91 21.0858 118.744 20.5294 118.744 19.2213 118.754 18.2451 119.808 18.2451 121.185 18.2451 122.561 19.2115 123.635 20.5294 123.635 21.0858 123.635 21.5934 123.43 21.9644 123.059L21.9644 123.528ZM18.9968 121.185C18.9968 120.15 19.6508 119.398 20.6075 119.398 21.1346 119.398 21.6032 119.613 21.9546 120.043L21.9546 122.347C21.6032 122.766 21.1346 122.971 20.6075 122.971 19.6508 122.971 18.9968 122.2 18.9968 121.185M24.6587 117.983C24.9418 117.983 25.1761 117.768 25.1761 117.485 25.1761 117.202 24.9516 116.978 24.6587 116.978 24.3854 116.978 24.1511 117.212 24.1511 117.485 24.1511 117.768 24.3854 117.983 24.6587 117.983M25.0297 118.842 24.3073 118.842 24.3073 123.528 25.0297 123.528 25.0297 118.842ZM28.7392 119.398C29.403 119.398 29.8618 119.808 29.8618 120.589L29.8618 123.528 30.594 123.528 30.594 120.443C30.594 119.438 29.9302 118.744 28.8954 118.744 28.2999 118.744 27.763 118.969 27.3628 119.379L27.353 118.842 26.6306 118.842 26.6306 123.528 27.353 123.528 27.353 120.013C27.7825 119.574 28.2804 119.398 28.7392 119.398M36.2461 123.284 36.2461 118.852 35.5335 118.852 35.5335 119.262C35.1528 118.94 34.6647 118.754 34.0985 118.754 32.8002 118.764 31.8435 119.818 31.8435 121.165 31.8435 122.532 32.7904 123.606 34.0887 123.606 34.6452 123.606 35.143 123.401 35.514 123.04L35.514 123.294C35.514 124.27 34.9283 124.934 33.9618 124.934 33.3176 124.934 32.8295 124.67 32.4878 124.153L31.9118 124.582C32.3414 125.168 32.9661 125.588 33.9911 125.588 35.4554 125.578 36.2461 124.641 36.2461 123.284M32.6049 121.156C32.6049 120.15 33.2395 119.398 34.1864 119.398 34.7038 119.398 35.1626 119.613 35.514 120.043L35.514 122.308C35.1626 122.727 34.7038 122.932 34.1864 122.932 33.2395 122.932 32.6049 122.161 32.6049 121.156M42.1424 118.744C40.8147 118.744 39.8385 119.779 39.8385 121.185 39.8385 122.6 40.8245 123.645 42.1521 123.645 43.0697 123.645 43.7531 123.137 44.1143 122.405L43.47 122.122C43.1869 122.649 42.8452 122.981 42.1033 122.981 41.2443 122.981 40.6 122.259 40.6 121.185 40.6 120.15 41.2443 119.408 42.1131 119.408 42.8355 119.408 43.1967 119.769 43.4602 120.277L44.124 119.984C43.7336 119.203 43.06 118.744 42.1424 118.744M48.4095 123.528 49.1319 123.528 49.1319 118.842 48.3998 118.842 48.3998 122.376C47.9898 122.805 47.4919 122.971 47.0429 122.971 46.3791 122.971 45.9105 122.561 45.9105 121.771L45.9105 118.832 45.1881 118.832 45.1881 121.917C45.1881 122.923 45.8421 123.625 46.8867 123.625 47.4626 123.625 48.0093 123.411 48.3998 123.02L48.4095 123.528ZM53.31 119.438 53.2808 118.744C52.5388 118.735 51.8653 119.037 51.465 119.682L51.4553 118.842 50.7329 118.842 50.7329 123.528 51.4553 123.528 51.4553 120.443C51.8067 119.769 52.6169 119.428 53.31 119.438M58.1617 122.561 57.5858 122.239C57.2441 122.747 56.7658 123.001 56.1703 123.001 55.3308 123.001 54.6865 122.317 54.5986 121.39L58.2301 121.39C58.2398 121.292 58.2398 121.214 58.2398 121.107 58.2398 119.896 57.5467 118.744 56.0629 118.744 54.8524 118.744 53.8372 119.711 53.8372 121.185 53.8372 122.61 54.8915 123.645 56.1801 123.645 57.0001 123.645 57.7322 123.264 58.1617 122.561M56.0531 119.369C56.8829 119.369 57.4101 119.984 57.4686 120.794L54.6181 120.794C54.7548 119.935 55.3308 119.369 56.0531 119.369M58.9622 122.874C59.5186 123.381 60.1141 123.645 60.856 123.645 61.8518 123.645 62.5839 123.118 62.5839 122.239 62.5839 121.605 62.2813 121.234 61.3734 120.951L60.5339 120.687C60.0848 120.55 59.8408 120.355 59.8408 119.994 59.8408 119.603 60.1532 119.33 60.6901 119.33 61.1977 119.33 61.6272 119.564 61.9884 119.974L62.5058 119.535C61.9884 119.028 61.471 118.744 60.7389 118.744 59.8603 118.744 59.1379 119.213 59.1379 120.062 59.1379 120.668 59.5089 121.117 60.3191 121.351L61.1879 121.595C61.6663 121.741 61.8908 121.946 61.8908 122.317 61.8908 122.737 61.5198 123.049 60.8756 123.049 60.4363 123.049 59.9872 122.893 59.4698 122.434L58.9622 122.874ZM64.0775 122.62C63.8139 122.62 63.5894 122.835 63.5894 123.098 63.5894 123.362 63.8041 123.577 64.0775 123.577 64.3411 123.577 64.5656 123.362 64.5656 123.098 64.5656 122.835 64.3411 122.62 64.0775 122.62M69.9249 123.625C71.272 123.625 72.1799 122.825 72.1799 121.771 72.1799 121.009 71.8187 120.511 70.6766 120.15L69.5735 119.789C68.8413 119.555 68.4899 119.252 68.4899 118.725 68.4899 118.139 68.9877 117.739 69.7882 117.739 70.4423 117.739 71.067 118.042 71.4673 118.569L72.0432 118.12C71.5942 117.563 70.8327 117.104 69.7882 117.104 68.5777 117.104 67.7284 117.778 67.7284 118.842 67.7284 119.613 68.2165 120.14 69.1927 120.443L70.3251 120.794C71.2037 121.068 71.4087 121.409 71.4087 121.858 71.4087 122.522 70.823 123.01 69.9151 123.01 69.1342 123.01 68.5192 122.678 68.0213 122.181L67.4942 122.659C68.0799 123.264 68.9292 123.625 69.9249 123.625M76.2994 123.528 77.0218 123.528 77.0218 120.482C77.0218 119.408 76.3775 118.754 75.2061 118.754 73.9859 118.754 73.3611 119.477 73.3025 120.258L74.0151 120.355C74.064 119.76 74.4642 119.379 75.1671 119.379 75.8699 119.379 76.2897 119.799 76.2897 120.482L76.2897 120.687 74.884 120.931C73.6637 121.146 73.2049 121.585 73.2049 122.386 73.2049 123.098 73.8004 123.625 74.6985 123.625 75.3037 123.625 75.8894 123.342 76.2994 122.932L76.2994 123.528ZM73.9566 122.317C73.9566 121.858 74.2592 121.624 75.294 121.429L76.2897 121.253 76.2897 122.327C75.909 122.737 75.4111 123.03 74.8156 123.03 74.2885 123.03 73.9566 122.757 73.9566 122.317M82.2933 118.842 81.5416 118.842 80.2823 122.142 80.0773 122.737 79.8528 122.142 78.5935 118.842 77.8028 118.842 79.638 123.528 80.4678 123.528 82.2933 118.842ZM83.6404 117.983C83.9235 117.983 84.1578 117.768 84.1578 117.485 84.1578 117.202 83.9235 116.978 83.6404 116.978 83.3671 116.978 83.1328 117.212 83.1328 117.485 83.1328 117.768 83.3573 117.983 83.6404 117.983M84.0016 118.842 83.2792 118.842 83.2792 123.528 84.0016 123.528 84.0016 118.842ZM87.7112 119.398C88.375 119.398 88.8338 119.808 88.8338 120.589L88.8338 123.528 89.5659 123.528 89.5659 120.443C89.5659 119.438 88.9021 118.744 87.8674 118.744 87.2719 118.744 86.7252 118.969 86.3347 119.379L86.325 118.842 85.6124 118.842 85.6124 123.528 86.3347 123.528 86.3347 120.013C86.7545 119.574 87.2621 119.398 87.7112 119.398M95.2279 123.284 95.2279 118.852 94.5055 118.852 94.5055 119.262C94.1248 118.94 93.6367 118.754 93.0705 118.754 91.7819 118.764 90.8155 119.818 90.8155 121.165 90.8155 122.532 91.7624 123.606 93.0607 123.606 93.6172 123.606 94.115 123.401 94.486 123.04L94.486 123.294C94.486 124.27 93.9003 124.934 92.9338 124.934 92.2895 124.934 91.8014 124.67 91.4598 124.153L90.8838 124.582C91.3133 125.168 91.9381 125.588 92.9631 125.588 94.4372 125.578 95.2279 124.641 95.2279 123.284M91.5769 121.156C91.5769 120.15 92.2114 119.398 93.1583 119.398 93.6757 119.398 94.1345 119.613 94.4957 120.043L94.4957 122.308C94.1443 122.727 93.6855 122.932 93.1583 122.932 92.2114 122.932 91.5769 122.161 91.5769 121.156M101.114 118.744C99.7769 118.744 98.8105 119.779 98.8105 121.185 98.8105 122.6 99.7965 123.645 101.124 123.645 102.042 123.645 102.725 123.137 103.086 122.405L102.442 122.122C102.159 122.649 101.817 122.981 101.075 122.981 100.206 122.981 99.5719 122.259 99.5719 121.185 99.5719 120.15 100.216 119.408 101.085 119.408 101.798 119.408 102.169 119.769 102.422 120.277L103.086 119.984C102.715 119.203 102.032 118.744 101.114 118.744M106.308 119.398C106.972 119.398 107.43 119.808 107.43 120.589L107.43 123.528 108.162 123.528 108.162 120.443C108.162 119.438 107.499 118.744 106.464 118.744 105.868 118.744 105.322 118.969 104.931 119.369L104.931 116.929 104.209 116.929 104.209 123.528 104.931 123.528 104.931 120.013C105.351 119.574 105.859 119.398 106.308 119.398M110.105 117.983C110.388 117.983 110.622 117.768 110.622 117.485 110.622 117.202 110.388 116.978 110.105 116.978 109.832 116.978 109.597 117.212 109.597 117.485 109.607 117.768 109.832 117.983 110.105 117.983M110.476 118.842 109.754 118.842 109.754 123.528 110.476 123.528 110.476 118.842ZM112.067 123.528 112.799 123.528 112.799 116.929 112.067 116.929 112.067 123.528ZM117.798 123.528 118.52 123.528 118.52 116.929 117.788 116.929 117.788 119.242C117.407 118.91 116.919 118.744 116.353 118.744 115.045 118.754 114.068 119.808 114.068 121.185 114.068 122.561 115.035 123.635 116.353 123.635 116.909 123.635 117.417 123.43 117.788 123.059L117.798 123.528ZM114.83 121.185C114.83 120.15 115.484 119.398 116.441 119.398 116.958 119.398 117.436 119.613 117.788 120.043L117.788 122.347C117.436 122.766 116.968 122.971 116.441 122.971 115.484 122.971 114.83 122.2 114.83 121.185M122.698 119.438 122.669 118.744C121.927 118.735 121.253 119.037 120.843 119.682L120.833 118.842 120.121 118.842 120.121 123.528 120.843 123.528 120.843 120.443C121.195 119.769 121.995 119.428 122.698 119.438M127.55 122.561 126.974 122.239C126.632 122.747 126.154 123.001 125.558 123.001 124.719 123.001 124.074 122.317 123.987 121.39L127.628 121.39C127.638 121.292 127.638 121.214 127.638 121.107 127.638 119.896 126.935 118.744 125.461 118.744 124.25 118.744 123.235 119.711 123.235 121.185 123.235 122.61 124.289 123.645 125.578 123.645 126.378 123.645 127.12 123.264 127.55 122.561M125.431 119.369C126.261 119.369 126.788 119.984 126.847 120.794L123.996 120.794C124.143 119.935 124.719 119.369 125.431 119.369M131.025 119.398C131.689 119.398 132.148 119.808 132.148 120.589L132.148 123.528 132.88 123.528 132.88 120.443C132.88 119.438 132.216 118.744 131.181 118.744 130.586 118.744 130.039 118.969 129.649 119.379L129.639 118.842 128.926 118.842 128.926 123.528 129.649 123.528 129.649 120.013C130.068 119.574 130.576 119.398 131.025 119.398M134.725 122.62C134.461 122.62 134.237 122.835 134.237 123.098 134.237 123.362 134.461 123.577 134.725 123.577 134.988 123.577 135.213 123.362 135.213 123.098 135.213 122.835 134.998 122.62 134.725 122.62" fill="#C2203D" transform="matrix(1.00091 0 0 1 19 235.262)"/></g></svg>